<?xml version="1.0" encoding="UTF-8"?>
<svg version="1.1" xmlns="http://www.w3.org/2000/svg" width="713" height="132">
<path d="M0 0 C1.30341591 -0.00087616 1.30341591 -0.00087616 2.63316345 -0.00177002 C5.49039383 0.00100511 8.34656633 0.0320698 11.20361328 0.06347656 C13.19043406 0.07094099 15.17726223 0.07663297 17.16409302 0.08062744 C22.38224775 0.09586784 27.59995404 0.1351361 32.81793213 0.17944336 C38.14695164 0.22043035 43.47604393 0.23864579 48.80517578 0.25878906 C59.253289 0.30163175 69.70107004 0.36986392 80.14892578 0.45410156 C80.12572266 1.26234375 80.10251953 2.07058594 80.07861328 2.90332031 C80.06056641 3.97195312 80.04251953 5.04058594 80.02392578 6.14160156 C80.00072266 7.19734375 79.97751953 8.25308594 79.95361328 9.34082031 C80.15172001 12.49864162 80.90457206 14.57837071 82.14892578 17.45410156 C82.14892578 18.44410156 82.14892578 19.43410156 82.14892578 20.45410156 C82.70580078 20.68097656 83.26267578 20.90785156 83.83642578 21.14160156 C86.14892578 22.45410156 86.14892578 22.45410156 88.08642578 25.01660156 C92.87906011 28.83114725 98.18781491 28.35809538 104.14892578 28.45410156 C104.64392578 26.96910156 104.64392578 26.96910156 105.14892578 25.45410156 C108.14892578 26.45410156 108.14892578 26.45410156 109.14892578 28.45410156 C109.25394234 29.99475519 109.29762418 31.5398058 109.31005859 33.08398438 C109.31966614 34.04548401 109.32927368 35.00698364 109.33917236 35.99761963 C109.34342224 37.04028992 109.34767212 38.08296021 109.35205078 39.15722656 C109.35775085 40.22777283 109.36345093 41.29831909 109.36932373 42.40130615 C109.37878341 44.67101043 109.38531154 46.94072849 109.38916016 49.21044922 C109.39884731 52.67602702 109.42985453 56.14100726 109.46142578 59.60644531 C109.46795758 61.81086887 109.47320736 64.01529668 109.47705078 66.21972656 C109.48939758 67.25429993 109.50174438 68.28887329 109.51446533 69.35479736 C109.49785311 74.7468571 109.41718619 78.92128263 106.14892578 83.45410156 C101.44225731 87.37668613 96.49199105 86.87792762 90.6706543 86.84228516 C89.61642273 86.84754211 88.56219116 86.85279907 87.47601318 86.85821533 C83.99313515 86.87141267 80.51071467 86.86267723 77.02783203 86.85253906 C74.60554415 86.85456002 72.18325687 86.85747163 69.76097107 86.86123657 C64.68441983 86.86565971 59.60802697 86.85922958 54.53149414 86.84521484 C48.02692064 86.82813233 41.52271875 86.83795862 35.01815891 86.85593224 C30.01585597 86.866778 25.01364098 86.86331987 20.01133537 86.85554886 C17.61316827 86.85354859 15.21499316 86.85600005 12.8168354 86.86298752 C9.46320609 86.87061375 6.1101765 86.85898016 2.7565918 86.84228516 C1.76678818 86.84835785 0.77698456 86.85443054 -0.24281311 86.86068726 C-5.55376517 86.81175503 -9.22424519 86.3757656 -13.85107422 83.45410156 C-13.85107422 82.79410156 -13.85107422 82.13410156 -13.85107422 81.45410156 C-14.51107422 81.45410156 -15.17107422 81.45410156 -15.85107422 81.45410156 C-16.95504067 77.88656706 -16.98435748 74.55860371 -16.99633789 70.8371582 C-16.9996965 70.18136276 -17.00305511 69.52556732 -17.0065155 68.84989929 C-17.01599295 66.68799939 -17.01796691 64.52617718 -17.01904297 62.36425781 C-17.02225747 60.85737578 -17.02562169 59.35049405 -17.02912903 57.84361267 C-17.03511204 54.68715695 -17.03696975 51.53072857 -17.03637695 48.37426758 C-17.03627531 44.33470826 -17.04993379 40.29532461 -17.06714916 36.25580692 C-17.07828033 33.14423317 -17.08029583 30.03270177 -17.07976723 26.92111015 C-17.08094541 25.43200512 -17.08535815 23.94289893 -17.09309959 22.45381355 C-17.10292342 20.36923105 -17.10001237 18.28502839 -17.09399414 16.20043945 C-17.09541916 15.01559464 -17.09684418 13.83074982 -17.09831238 12.61000061 C-16.7177821 7.7526795 -15.96753227 5.44566967 -12.27926636 2.16998291 C-7.95801534 0.00710705 -4.75610324 -0.0843749 0 0 Z M78.20361328 23.36035156 C73.20251748 28.98898485 73.20251748 28.98898485 71.64892578 36.07910156 C71.81392578 37.19285156 71.97892578 38.30660156 72.14892578 39.45410156 C75.17546649 40.12007239 78.04433981 40.57451552 81.14892578 40.45410156 C84.02341028 38.41320301 84.02341028 38.41320301 86.14892578 35.45410156 C88.64892578 32.95410156 88.64892578 32.95410156 91.14892578 30.45410156 C90.31444581 28.2005439 90.31444581 28.2005439 87.77392578 27.64160156 C84.51777727 26.168582 83.84020289 24.51450776 82.14892578 21.45410156 C79.93307195 21.22080179 79.93307195 21.22080179 78.20361328 23.36035156 Z M10.02392578 49.89160156 C8.88216741 50.82019445 7.74023705 51.74857592 6.59814453 52.67675781 C6.02628418 53.1461377 5.45442383 53.61551758 4.86523438 54.09912109 C3.25116824 55.37338383 1.55483269 56.54141298 -0.14404297 57.70019531 C-5.86066109 61.57832081 -5.86066109 61.57832081 -8.56591797 67.64941406 C-8.59839301 70.70206798 -8.45313805 73.4632038 -7.85107422 76.45410156 C-6.16603722 78.13913856 -4.08847537 77.5737614 -1.84013367 77.57852173 C-1.12372208 77.57492645 -0.40731049 77.57133118 0.33081055 77.56762695 C1.45756699 77.56784599 1.45756699 77.56784599 2.60708618 77.56806946 C5.10153037 77.5673702 7.59590081 77.55957721 10.09033203 77.55175781 C11.81526143 77.54989368 13.54019135 77.54846975 15.26512146 77.54747009 C19.81405082 77.54364454 24.36294845 77.53381394 28.91186523 77.52276611 C33.55012584 77.5125528 38.18839156 77.50797264 42.82666016 77.50292969 C51.934096 77.4921917 61.04150826 77.47511483 70.14892578 77.45410156 C70.14892578 76.79410156 70.14892578 76.13410156 70.14892578 75.45410156 C62.99877617 69.91850187 56.73618293 66.89287143 47.73876953 65.86425781 C44.10998759 65.28956384 41.9449975 63.78416133 39.14892578 61.45410156 C38.13830078 60.64972656 37.12767578 59.84535156 36.08642578 59.01660156 C33.3127832 56.59704101 30.75042364 54.05559942 28.14892578 51.45410156 C26.99856112 50.33296095 25.83102274 49.22923289 24.64892578 48.14160156 C24.10236328 47.62984375 23.55580078 47.11808594 22.99267578 46.59082031 C17.79197506 43.38445609 14.1489834 46.47840392 10.02392578 49.89160156 Z " fill="#117CA6" transform="translate(28.85107421875,27.5458984375)"/>
<path d="M0 0 C1.30341591 -0.00087616 1.30341591 -0.00087616 2.63316345 -0.00177002 C5.49039383 0.00100511 8.34656633 0.0320698 11.20361328 0.06347656 C13.19043406 0.07094099 15.17726223 0.07663297 17.16409302 0.08062744 C22.38224775 0.09586784 27.59995404 0.1351361 32.81793213 0.17944336 C38.14695164 0.22043035 43.47604393 0.23864579 48.80517578 0.25878906 C59.253289 0.30163175 69.70107004 0.36986392 80.14892578 0.45410156 C79.89331255 2.79722286 79.55621806 5.13253559 79.14892578 7.45410156 C75.99032963 9.03339964 72.58944504 8.63406496 69.11914062 8.65942383 C68.28979507 8.66932343 67.46044952 8.67922302 66.60597229 8.68942261 C63.85729859 8.7210782 61.1086076 8.74581105 58.35986328 8.77050781 C56.45699609 8.79107384 54.55413351 8.81207021 52.65127563 8.83348083 C47.63716353 8.88873783 42.62300996 8.93813109 37.60882568 8.98632812 C32.49455056 9.03651669 27.38033585 9.09221654 22.26611328 9.14746094 C12.22710235 9.25508687 2.18803903 9.35652198 -7.85107422 9.45410156 C-7.87636412 16.96548751 -7.89391563 24.47686253 -7.90600586 31.98828125 C-7.91104438 34.54525157 -7.91787529 37.102219 -7.92651367 39.65917969 C-7.93860023 43.32780673 -7.94430723 46.99639579 -7.94873047 50.66503906 C-7.95389175 51.81402679 -7.95905304 52.96301453 -7.96437073 54.14682007 C-7.96444626 55.20776886 -7.96452179 56.26871765 -7.96459961 57.36181641 C-7.96793053 58.76746353 -7.96793053 58.76746353 -7.97132874 60.20150757 C-7.99934465 62.48997459 -7.99934465 62.48997459 -6.85107422 64.45410156 C-6.78041805 66.49465161 -6.76685446 68.53744413 -6.78857422 70.57910156 C-6.79759766 71.67480469 -6.80662109 72.77050781 -6.81591797 73.89941406 C-6.82751953 74.74246094 -6.83912109 75.58550781 -6.85107422 76.45410156 C-6.04152283 76.45188095 -5.23197144 76.44966034 -4.39788818 76.44737244 C5.86770813 76.42051159 16.13330031 76.40234183 26.39892578 76.39160156 C27.21139393 76.39074554 28.02386208 76.38988953 28.86095047 76.38900757 C52.63907652 76.36685001 76.38660227 76.48773256 100.14892578 77.45410156 C100.14892578 73.82410156 100.14892578 70.19410156 100.14892578 66.45410156 C98.49892578 65.79410156 96.84892578 65.13410156 95.14892578 64.45410156 C93.64932429 63.29251401 92.17091459 62.10320492 90.71142578 60.89160156 C85.31771889 56.95192108 80.71007633 56.69093515 74.15283203 56.71972656 C71.14892578 56.45410156 71.14892578 56.45410156 69.21923828 55.07519531 C68.14892578 53.45410156 68.14892578 53.45410156 68.46142578 51.26660156 C68.68830078 50.66847656 68.91517578 50.07035156 69.14892578 49.45410156 C72.02392578 48.82910156 72.02392578 48.82910156 75.14892578 48.45410156 C75.80892578 49.11410156 76.46892578 49.77410156 77.14892578 50.45410156 C76.77392578 53.07910156 76.77392578 53.07910156 76.14892578 55.45410156 C78.45892578 55.45410156 80.76892578 55.45410156 83.14892578 55.45410156 C83.64392578 54.46410156 83.64392578 54.46410156 84.14892578 53.45410156 C84.66455078 53.70160156 85.18017578 53.94910156 85.71142578 54.20410156 C89.06938051 54.54850718 90.71200921 53.17323383 93.46533203 51.36425781 C95.14892578 50.45410156 95.14892578 50.45410156 98.14892578 50.45410156 C98.12830078 49.64972656 98.10767578 48.84535156 98.08642578 48.01660156 C98.14892578 45.45410156 98.14892578 45.45410156 99.14892578 44.45410156 C99.38546101 41.92813897 99.5706627 39.42302949 99.71142578 36.89160156 C99.77620117 35.82522461 99.77620117 35.82522461 99.84228516 34.73730469 C99.94864355 32.97648244 100.04931424 31.21531836 100.14892578 29.45410156 C101.79892578 28.79410156 103.44892578 28.13410156 105.14892578 27.45410156 C105.14892578 26.79410156 105.14892578 26.13410156 105.14892578 25.45410156 C108.14892578 26.45410156 108.14892578 26.45410156 109.14892578 28.45410156 C109.25394234 29.99475519 109.29762418 31.5398058 109.31005859 33.08398438 C109.31966614 34.04548401 109.32927368 35.00698364 109.33917236 35.99761963 C109.34342224 37.04028992 109.34767212 38.08296021 109.35205078 39.15722656 C109.35775085 40.22777283 109.36345093 41.29831909 109.36932373 42.40130615 C109.37878341 44.67101043 109.38531154 46.94072849 109.38916016 49.21044922 C109.39884731 52.67602702 109.42985453 56.14100726 109.46142578 59.60644531 C109.46795758 61.81086887 109.47320736 64.01529668 109.47705078 66.21972656 C109.48939758 67.25429993 109.50174438 68.28887329 109.51446533 69.35479736 C109.49785311 74.7468571 109.41718619 78.92128263 106.14892578 83.45410156 C101.44225731 87.37668613 96.49199105 86.87792762 90.6706543 86.84228516 C89.61642273 86.84754211 88.56219116 86.85279907 87.47601318 86.85821533 C83.99313515 86.87141267 80.51071467 86.86267723 77.02783203 86.85253906 C74.60554415 86.85456002 72.18325687 86.85747163 69.76097107 86.86123657 C64.68441983 86.86565971 59.60802697 86.85922958 54.53149414 86.84521484 C48.02692064 86.82813233 41.52271875 86.83795862 35.01815891 86.85593224 C30.01585597 86.866778 25.01364098 86.86331987 20.01133537 86.85554886 C17.61316827 86.85354859 15.21499316 86.85600005 12.8168354 86.86298752 C9.46320609 86.87061375 6.1101765 86.85898016 2.7565918 86.84228516 C1.76678818 86.84835785 0.77698456 86.85443054 -0.24281311 86.86068726 C-5.55376517 86.81175503 -9.22424519 86.3757656 -13.85107422 83.45410156 C-13.85107422 82.79410156 -13.85107422 82.13410156 -13.85107422 81.45410156 C-14.51107422 81.45410156 -15.17107422 81.45410156 -15.85107422 81.45410156 C-16.95504067 77.88656706 -16.98435748 74.55860371 -16.99633789 70.8371582 C-16.9996965 70.18136276 -17.00305511 69.52556732 -17.0065155 68.84989929 C-17.01599295 66.68799939 -17.01796691 64.52617718 -17.01904297 62.36425781 C-17.02225747 60.85737578 -17.02562169 59.35049405 -17.02912903 57.84361267 C-17.03511204 54.68715695 -17.03696975 51.53072857 -17.03637695 48.37426758 C-17.03627531 44.33470826 -17.04993379 40.29532461 -17.06714916 36.25580692 C-17.07828033 33.14423317 -17.08029583 30.03270177 -17.07976723 26.92111015 C-17.08094541 25.43200512 -17.08535815 23.94289893 -17.09309959 22.45381355 C-17.10292342 20.36923105 -17.10001237 18.28502839 -17.09399414 16.20043945 C-17.09541916 15.01559464 -17.09684418 13.83074982 -17.09831238 12.61000061 C-16.7177821 7.7526795 -15.96753227 5.44566967 -12.27926636 2.16998291 C-7.95801534 0.00710705 -4.75610324 -0.0843749 0 0 Z " fill="#F4FAFC" transform="translate(28.85107421875,27.5458984375)"/>
<path d="M0 0 C0.495 0.495 0.495 0.495 1 1 C0.9140625 2.9609375 0.9140625 2.9609375 0.625 5.375 C0.48964844 6.56222656 0.48964844 6.56222656 0.3515625 7.7734375 C0 10 0 10 -1 13 C-4.32933714 12.50059943 -7.40192395 11.87526498 -10.625 10.875 C-18.23740846 8.95002315 -26.57911049 9.90749861 -33.38671875 13.83984375 C-39.00837941 17.88253919 -41.58908247 24.39892156 -43 31 C-43.75069907 37.43632152 -42.97991604 43.7005396 -39 49 C-34.17987814 52.20624177 -30.19475628 52.38390189 -24.625 52.1875 C-23.88894531 52.17396484 -23.15289062 52.16042969 -22.39453125 52.14648438 C-20.59603257 52.11144869 -18.79791578 52.05765288 -17 52 C-16.90912109 50.84371094 -16.90912109 50.84371094 -16.81640625 49.6640625 C-16.73261719 48.66117188 -16.64882812 47.65828125 -16.5625 46.625 C-16.48128906 45.62726563 -16.40007812 44.62953125 -16.31640625 43.6015625 C-16 41 -16 41 -15 39 C-18.3 39 -21.6 39 -25 39 C-26.37651096 34.45751385 -25.37464064 31.45446527 -24 27 C-20.39715934 26.74529875 -16.79301891 26.52564517 -13.1875 26.3125 C-12.16333984 26.23966797 -11.13917969 26.16683594 -10.08398438 26.09179688 C-8.60961914 26.00961914 -8.60961914 26.00961914 -7.10546875 25.92578125 C-5.74651489 25.83937378 -5.74651489 25.83937378 -4.36010742 25.7512207 C-2 26 -2 26 -0.15551758 27.08496094 C1.63364569 30.05014088 1.01638672 32.32273446 0.59375 35.71484375 C0.47199402 36.69306847 0.47199402 36.69306847 0.34777832 37.6910553 C0.17093024 39.06980042 -0.01455363 40.44746132 -0.20800781 41.82397461 C-0.49809117 43.92368331 -0.74667685 46.02553157 -0.9921875 48.13085938 C-1.16937638 49.47168673 -1.34898597 50.81219685 -1.53125 52.15234375 C-1.69173828 53.36913818 -1.85222656 54.58593262 -2.01757812 55.83959961 C-3.21453227 59.69013922 -4.65613418 60.84685951 -8 63 C-17.5706423 67.78532115 -33.01586087 67.71386919 -43.125 64.4375 C-49.82927961 61.51773028 -54.19514409 57.22850273 -57.4375 50.6875 C-60.9522981 40.73651317 -60.46577009 27.94270504 -56.2578125 18.3203125 C-51.17609816 8.9459699 -43.79031669 1.00914821 -33.45703125 -2.34375 C-22.90805298 -4.34626791 -9.87068709 -4.70380891 0 0 Z " fill="#FAFCFD" transform="translate(232,37)"/>
<path d="M0 0 C0.74886475 0.00523682 1.49772949 0.01047363 2.26928711 0.01586914 C3.07817383 0.0190918 3.88706055 0.02231445 4.72045898 0.02563477 C5.5705957 0.03401367 6.42073242 0.04239258 7.29663086 0.05102539 C8.15063477 0.05553711 9.00463867 0.06004883 9.88452148 0.06469727 C12.00108749 0.07652166 14.11761771 0.0944577 16.23413086 0.11352539 C18.01264381 4.18394152 19.07701647 8.3052444 20.03881836 12.62524414 C20.2030278 13.34717453 20.36723724 14.06910492 20.53642273 14.81291199 C21.06492222 17.14134297 21.58741634 19.47106552 22.10913086 21.80102539 C22.46821843 23.39563561 22.82751231 24.99019938 23.18701172 26.5847168 C23.7183533 28.94256491 24.24916989 31.30052276 24.77799988 33.65893555 C25.72136341 37.86228831 26.68526611 42.05945652 27.68334961 46.25024414 C27.87751465 47.07758057 28.07167969 47.90491699 28.27172852 48.75732422 C28.60876891 50.18998104 28.95289538 51.62099968 29.3059082 53.04980469 C30.23026959 57.04649263 30.08251106 58.87162438 29.23413086 63.11352539 C23.95413086 63.11352539 18.67413086 63.11352539 13.23413086 63.11352539 C11.23413086 56.11352539 11.23413086 56.11352539 11.23413086 51.11352539 C3.97413086 51.11352539 -3.28586914 51.11352539 -10.76586914 51.11352539 C-11.42586914 53.09352539 -12.08586914 55.07352539 -12.76586914 57.11352539 C-14.37524414 60.46508789 -14.37524414 60.46508789 -16.76586914 63.11352539 C-19.81332733 63.57247994 -22.01566564 63.69525319 -25.01586914 63.48852539 C-25.76094727 63.46145508 -26.50602539 63.43438477 -27.27368164 63.40649414 C-29.10565907 63.33603347 -30.93614066 63.22841532 -32.76586914 63.11352539 C-33.47677419 57.82355549 -30.99359474 54.20047227 -28.51586914 49.73852539 C-27.59579497 48.03843907 -26.6765614 46.33789763 -25.75805664 44.63696289 C-25.27046875 43.74074219 -24.78288086 42.84452148 -24.28051758 41.92114258 C-21.67835455 37.0976618 -19.16517126 32.22806175 -16.64086914 27.36352539 C-13.13988703 20.64468358 -9.63161832 13.92990145 -6.07836914 7.23852539 C-5.75143066 6.62009766 -5.42449219 6.00166992 -5.08764648 5.36450195 C-2.30678347 0.14830006 -2.30678347 0.14830006 0 0 Z M4.23413086 20.11352539 C0.91101811 25.5729249 -1.50631238 31.14012268 -3.76586914 37.11352539 C-1.14271882 38.42510055 0.46446522 38.01002527 3.35913086 37.67602539 C4.26920898 37.57418945 5.17928711 37.47235352 6.11694336 37.36743164 C7.16495117 37.24174805 7.16495117 37.24174805 8.23413086 37.11352539 C7.95097526 35.02901822 7.65727417 32.94594173 7.35913086 30.86352539 C7.19670898 29.70336914 7.03428711 28.54321289 6.86694336 27.34790039 C6.31592655 24.53159226 5.67616604 22.56134982 4.23413086 20.11352539 Z " fill="#485BC8" transform="translate(631.765869140625,38.886474609375)"/>
<path d="M0 0 C4.44000923 7.64886546 1.01149349 21.08781531 -0.05078125 29.53125 C-0.17662598 30.54356689 -0.3024707 31.55588379 -0.43212891 32.59887695 C-0.56151855 33.55109131 -0.6909082 34.50330566 -0.82421875 35.484375 C-0.93942871 36.33676758 -1.05463867 37.18916016 -1.17333984 38.06738281 C-1.67578125 40.28125 -1.67578125 40.28125 -3.67578125 43.28125 C-6.0234375 43.609375 -6.0234375 43.609375 -8.73828125 43.53125 C-9.63675781 43.51578125 -10.53523437 43.5003125 -11.4609375 43.484375 C-13.67578125 43.28125 -13.67578125 43.28125 -14.67578125 42.28125 C-14.99103887 37.02695631 -14.41915363 32.11512881 -13.67578125 26.90625 C-12.83209997 20.97077392 -12.42220705 15.26841852 -12.67578125 9.28125 C-16.11948624 8.06582471 -17.45497375 8.18599971 -20.86328125 9.65625 C-23.7113255 12.31442464 -24.05838458 12.72453015 -24.75390625 16.2578125 C-24.99016724 17.45591553 -24.99016724 17.45591553 -25.23120117 18.67822266 C-26.1668104 24.15623782 -26.89233572 29.65916029 -27.61914062 35.16796875 C-27.74224609 36.07160156 -27.86535156 36.97523437 -27.9921875 37.90625 C-28.09990479 38.72351563 -28.20762207 39.54078125 -28.31860352 40.3828125 C-28.67578125 42.28125 -28.67578125 42.28125 -29.67578125 43.28125 C-31.52865627 43.35351502 -33.38412003 43.3650622 -35.23828125 43.34375 C-36.25019531 43.33472656 -37.26210938 43.32570312 -38.3046875 43.31640625 C-39.47837891 43.29900391 -39.47837891 43.29900391 -40.67578125 43.28125 C-41.70209709 40.20230249 -41.66865067 39.12665248 -41.15234375 36.03515625 C-40.95185425 34.78653809 -40.95185425 34.78653809 -40.74731445 33.51269531 C-40.5999585 32.63194336 -40.45260254 31.75119141 -40.30078125 30.84375 C-39.10018038 23.32188058 -38.12427046 15.89010143 -37.67578125 8.28125 C-41.40048315 7.92651649 -43.41466815 8.1482425 -46.78393555 9.86450195 C-50.41595402 12.89982073 -50.67377962 14.56912103 -51.3203125 19.19921875 C-51.42043137 19.85706863 -51.52055023 20.51491852 -51.623703 21.19270325 C-51.93672574 23.28198769 -52.21347818 25.37412926 -52.48828125 27.46875 C-52.78859095 29.57235827 -53.09615979 31.67476972 -53.40641785 33.77693176 C-53.68273445 35.67530401 -53.9410443 37.57627107 -54.19848633 39.47729492 C-54.67578125 42.28125 -54.67578125 42.28125 -55.67578125 43.28125 C-57.52865627 43.35351502 -59.38412003 43.3650622 -61.23828125 43.34375 C-62.25019531 43.33472656 -63.26210938 43.32570312 -64.3046875 43.31640625 C-65.47837891 43.29900391 -65.47837891 43.29900391 -66.67578125 43.28125 C-67.71468719 39.26767505 -67.5647304 36.13783 -66.93359375 32.0546875 C-66.75441406 30.85714844 -66.57523437 29.65960938 -66.390625 28.42578125 C-66.19597656 27.18183594 -66.00132812 25.93789062 -65.80078125 24.65625 C-65.42563377 22.2061489 -65.05320119 19.75563045 -64.68359375 17.3046875 C-64.50473633 16.12358398 -64.32587891 14.94248047 -64.14160156 13.72558594 C-63.58592502 9.61684137 -63.25557759 5.51563626 -63.01513672 1.37744141 C-62.67578125 -0.71875 -62.67578125 -0.71875 -60.67578125 -2.71875 C-55.5242388 -3.88200152 -55.5242388 -3.88200152 -52.67578125 -3.71875 C-50.17578125 -1.78125 -50.17578125 -1.78125 -48.67578125 0.28125 C-47.91265625 -0.37875 -47.14953125 -1.03875 -46.36328125 -1.71875 C-41.85928363 -4.73213888 -36.88525547 -4.39273068 -31.67578125 -3.71875 C-28.55640156 -2.34622293 -27.18600975 -1.739207 -25.67578125 1.28125 C-23.45745237 0.21316573 -21.45339218 -0.87318685 -19.42578125 -2.28125 C-12.68701565 -5.80378656 -5.55786175 -5.70037102 0 0 Z " fill="#FAFDFD" transform="translate(536.67578125,58.71875)"/>
<path d="M0 0 C0.50512244 1.60256108 1.00391627 3.20711792 1.5 4.8125 C1.7784375 5.70582031 2.056875 6.59914063 2.34375 7.51953125 C3 10 3 10 3 13 C3.556875 13.226875 4.11375 13.45375 4.6875 13.6875 C7 15 7 15 9.1875 17.5 C12.86990097 20.7732453 16.22425987 21.30288761 21 22 C21.02698422 24.43757413 21.04683099 26.87484915 21.0625 29.3125 C21.07087891 30.00279297 21.07925781 30.69308594 21.08789062 31.40429688 C21.10307906 34.5483025 21.00193327 36.99420019 20 40 C19.65772583 41.33106622 19.32248257 42.66400079 19 44 C18.195625 44.1546875 18.195625 44.1546875 17.375 44.3125 C14.81612768 44.96184601 14.81612768 44.96184601 12 46.625 C8.85076166 48.06840091 8.11010558 48.15189096 5 47 C4.67 47.33 4.34 47.66 4 48 C1.66702567 48.04092937 -0.66705225 48.04241723 -3 48 C-3.5534764 45.92446352 -4 44.15634036 -4 42 C-6.97065509 42.34227572 -6.97065509 42.34227572 -10 43 C-10.495 43.99 -10.495 43.99 -11 45 C-16.05470895 42.94243612 -19.44207667 38.80238551 -23.24609375 35.01953125 C-25.77019182 32.76356219 -25.77019182 32.76356219 -28.5234375 32.9453125 C-31.55700809 34.23721165 -33.68655064 35.91720759 -36.1875 38.0625 C-40.80316344 42 -40.80316344 42 -43 42 C-42.875 40.1875 -42.875 40.1875 -42 38 C-36.96428571 35 -36.96428571 35 -34 35 C-33.67 34.01 -33.34 33.02 -33 32 C-32.34 31.67 -31.68 31.34 -31 31 C-31.74765625 30.99742188 -32.4953125 30.99484375 -33.265625 30.9921875 C-36.28318156 30.87369706 -39.0529531 30.67094151 -42 30 C-44.625 27 -44.625 27 -46 24 C-46.33 23.67 -46.66 23.34 -47 23 C-47.47070964 18.61877949 -47.44149027 14.98331924 -45.625 10.9375 C-45.08875 10.298125 -44.5525 9.65875 -44 9 C-43.34 9 -42.68 9 -42 9 C-42 8.34 -42 7.68 -42 7 C-32.07849011 6.37447573 -32.07849011 6.37447573 -27.875 8.8125 C-25.10752728 12.04121817 -24.87808466 14.5878413 -24.9375 18.6875 C-24.94652344 19.49574219 -24.95554688 20.30398437 -24.96484375 21.13671875 C-24.97644531 21.75160156 -24.98804688 22.36648437 -25 23 C-24.34 23 -23.68 23 -23 23 C-23 19.7 -23 16.4 -23 13 C-22.01 12.67 -21.02 12.34 -20 12 C-20 10.35 -20 8.7 -20 7 C-20.99 6.67 -21.98 6.34 -23 6 C-22.67 5.34 -22.34 4.68 -22 4 C-17.53066656 3.19405463 -14.36620495 2.79552967 -10 4 C-9.13375 3.814375 -8.2675 3.62875 -7.375 3.4375 C-6.59125 3.293125 -5.8075 3.14875 -5 3 C-4.01 3.99 -4.01 3.99 -3 5 C-2.67 4.01 -2.34 3.02 -2 2 C-30.05 2 -58.1 2 -87 2 C-87 1.67 -87 1.34 -87 1 C-75.95191927 0.86947822 -64.90383707 0.73908229 -53.85575294 0.60884857 C-48.72610018 0.54837675 -43.59644795 0.487861 -38.46679688 0.42724609 C-33.51960748 0.36878886 -28.57241675 0.3104454 -23.62522507 0.25218201 C-21.73452074 0.22989484 -19.8438169 0.20756614 -17.95311356 0.18519592 C-15.31200536 0.15395412 -12.67089549 0.12285782 -10.02978516 0.09179688 C-8.84835182 0.07777077 -8.84835182 0.07777077 -7.64305115 0.0634613 C-2.22810432 0 -2.22810432 0 0 0 Z M-0.9453125 15.90625 C-5.9464083 21.53488329 -5.9464083 21.53488329 -7.5 28.625 C-7.335 29.73875 -7.17 30.8525 -7 32 C-3.97345929 32.66597083 -1.10458597 33.12041396 2 33 C4.8744845 30.95910144 4.8744845 30.95910144 7 28 C9.5 25.5 9.5 25.5 12 23 C11.16552003 20.74644234 11.16552003 20.74644234 8.625 20.1875 C5.36885149 18.71448044 4.69127711 17.0604062 3 14 C0.78414617 13.76670023 0.78414617 13.76670023 -0.9453125 15.90625 Z " fill="#228CAF" transform="translate(108,35)"/>
<path d="M0 0 C0.90105469 0.02707031 1.80210937 0.05414063 2.73046875 0.08203125 C3.76107422 0.13423828 3.76107422 0.13423828 4.8125 0.1875 C5.12982638 7.96199624 3.93105299 15.51742235 2.8125 23.1875 C3.85083984 22.70410156 3.85083984 22.70410156 4.91015625 22.2109375 C11.20428567 19.99147329 18.40725842 20.06781857 24.4375 22.875 C29.76051714 28.05793774 30.43201499 32.70785486 30.8046875 39.91015625 C30.82497031 48.41879551 28.28889302 55.57999104 22.8125 62.1875 C14.00359461 69.15005882 5.7390057 69.73004012 -5.1875 69.1875 C-8.57119012 68.69243083 -11.872872 68.02550979 -15.1875 67.1875 C-16.25275217 63.81553636 -16.18229353 61.00865005 -15.875 57.5 C-15.75705078 56.04013672 -15.75705078 56.04013672 -15.63671875 54.55078125 C-15.29133868 51.9649357 -14.83529396 49.58485991 -14.23339844 47.05883789 C-13.17390463 42.35550761 -12.54215368 37.66998226 -12.00390625 32.8828125 C-11.79671794 31.14837842 -11.58902118 29.41400501 -11.38085938 27.6796875 C-11.06167501 24.98106145 -10.74655563 22.28214394 -10.44018555 19.58203125 C-10.13961427 16.95161741 -9.82300135 14.32353441 -9.50390625 11.6953125 C-9.41629532 10.88595245 -9.32868439 10.07659241 -9.23841858 9.2427063 C-8.40010833 2.49890185 -7.01361711 -0.27325781 0 0 Z M0.8125 36.1875 C-0.32644882 38.94017253 -0.70039787 41.68040563 -1.0625 44.625 C-1.17851563 45.37587891 -1.29453125 46.12675781 -1.4140625 46.90039062 C-1.97333037 50.6854357 -2.32471574 54.35308244 -2.1875 58.1875 C5.07109028 58.76413475 5.07109028 58.76413475 11.8125 56.5625 C16.84296929 50.58881772 17.15815874 45.73981161 17.2109375 38.11328125 C17.04469367 35.21243715 17.04469367 35.21243715 15.49609375 33.3203125 C10.28521898 29.81415546 5.00790295 32.55413344 0.8125 36.1875 Z " fill="#FAFCFD" transform="translate(557.1875,33.8125)"/>
<path d="M0 0 C1.51400391 0.01740234 1.51400391 0.01740234 3.05859375 0.03515625 C4.07050781 0.04417969 5.08242188 0.05320313 6.125 0.0625 C7.29869141 0.07990234 7.29869141 0.07990234 8.49609375 0.09765625 C7.92363681 8.44091166 7.29459992 16.77280472 6.49609375 25.09765625 C7.57890625 24.10765625 7.57890625 24.10765625 8.68359375 23.09765625 C13.56067446 19.83071223 19.90038306 20.14519486 25.49609375 21.09765625 C28.19541625 22.90958112 30.03664351 24.17875578 31.49609375 27.09765625 C32.16744981 36.63865875 31.32444023 46.00923793 30.12109375 55.47265625 C29.93208496 56.99765747 29.93208496 56.99765747 29.73925781 58.5534668 C29.54541504 59.97912964 29.54541504 59.97912964 29.34765625 61.43359375 C29.23244629 62.2848584 29.11723633 63.13612305 28.99853516 64.01318359 C28.49609375 66.09765625 28.49609375 66.09765625 26.49609375 68.09765625 C24.1484375 68.328125 24.1484375 68.328125 21.43359375 68.28515625 C20.08587891 68.27548828 20.08587891 68.27548828 18.7109375 68.265625 C16.49609375 68.09765625 16.49609375 68.09765625 15.49609375 67.09765625 C15.56152701 64.68554829 15.68882002 62.31389108 15.87109375 59.91015625 C15.96132813 58.59660156 16.0515625 57.28304687 16.14453125 55.9296875 C16.49609375 52.09765625 16.49609375 52.09765625 17.02734375 49.00390625 C17.52997149 45.88761425 17.62895116 42.93990769 17.62109375 39.78515625 C17.62367188 38.73714844 17.62625 37.68914062 17.62890625 36.609375 C17.7800703 34.15870523 17.7800703 34.15870523 16.49609375 33.09765625 C10.61283893 33.54526248 10.61283893 33.54526248 5.49609375 36.09765625 C4.73829392 38.78026764 4.24634676 41.1716709 3.87109375 43.91015625 C3.75193604 44.66756104 3.63277832 45.42496582 3.51000977 46.20532227 C3.15263615 48.50037997 2.82001591 50.79765871 2.49609375 53.09765625 C2.14502073 55.5772629 1.79125349 58.0564911 1.43359375 60.53515625 C1.23056641 62.08009766 1.23056641 62.08009766 1.0234375 63.65625 C0.49609375 66.09765625 0.49609375 66.09765625 -1.50390625 68.09765625 C-3.8515625 68.328125 -3.8515625 68.328125 -6.56640625 68.28515625 C-7.91412109 68.27548828 -7.91412109 68.27548828 -9.2890625 68.265625 C-11.50390625 68.09765625 -11.50390625 68.09765625 -12.50390625 67.09765625 C-12.36820926 55.91961695 -10.61666115 44.82323618 -9.00390625 33.78515625 C-8.5531016 30.66447232 -8.10573325 27.54330933 -7.66015625 24.421875 C-7.50148071 23.31758904 -7.50148071 23.31758904 -7.33959961 22.19099426 C-6.66818194 17.45644302 -6.11382383 12.72887897 -5.73242188 7.96240234 C-5.22514225 3.82287057 -4.46520237 0.17414986 0 0 Z " fill="#FAFDFD" transform="translate(389.50390625,33.90234375)"/>
<path d="M0 0 C1.31677734 0.11408203 1.31677734 0.11408203 2.66015625 0.23046875 C4.9375 0.8125 4.9375 0.8125 6.9375 3.8125 C7.783125 3.1525 8.62875 2.4925 9.5 1.8125 C15.29650337 -1.51336259 22.50430043 -1.13131353 28.9375 -0.1875 C32.14996292 1.61370753 34.34774862 2.87425916 36.3125 6 C38.23059555 14.63142999 36.30872699 23.70381141 35.0625 32.3125 C34.88847656 33.59898438 34.71445312 34.88546875 34.53515625 36.2109375 C34.36113281 37.43039063 34.18710937 38.64984375 34.0078125 39.90625 C33.85070801 41.01677734 33.69360352 42.12730469 33.53173828 43.27148438 C33.33563965 44.11001953 33.13954102 44.94855469 32.9375 45.8125 C30.31420316 47.12414842 28.30051375 46.94512846 25.375 46.9375 C24.38371094 46.94007812 23.39242187 46.94265625 22.37109375 46.9453125 C19.9375 46.8125 19.9375 46.8125 18.9375 45.8125 C18.65825533 40.32068821 19.10712452 35.24822034 19.9375 29.8125 C20.76198879 24.370874 21.30394803 19.30922048 20.9375 13.8125 C20.2775 13.1525 19.6175 12.4925 18.9375 11.8125 C14.65130772 12.13598621 10.69878818 12.69058907 6.9375 14.8125 C5.73446877 17.60599892 5.73446877 17.60599892 5.25 21 C4.90582031 22.87171875 4.90582031 22.87171875 4.5546875 24.78125 C3.710735 30.07867495 3.05103356 35.39893283 2.46484375 40.73046875 C1.9375 43.8125 1.9375 43.8125 -0.0625 46.8125 C-2.84765625 47.140625 -2.84765625 47.140625 -6.125 47.0625 C-7.20910156 47.04703125 -8.29320312 47.0315625 -9.41015625 47.015625 C-12.0625 46.8125 -12.0625 46.8125 -13.0625 45.8125 C-12.99560019 44.24643625 -12.85585538 42.68342476 -12.6875 41.125 C-12.22199166 36.60544432 -11.89179928 32.09808769 -11.625 27.5625 C-11.29147277 22.68135539 -10.45312288 18.50585221 -9.0625 13.8125 C-8.80574155 10.67026561 -8.62643983 7.53701765 -8.50390625 4.38671875 C-8.35824219 3.53722656 -8.21257812 2.68773437 -8.0625 1.8125 C-4.68666252 -0.43805832 -3.87890641 -0.39417458 0 0 Z " fill="#FAFDFD" transform="translate(297.0625,55.1875)"/>
<path d="M0 0 C4.00707041 4.65779125 4.59971826 8.02477335 4.68359375 13.96875 C4.71259766 14.65001953 4.74160156 15.33128906 4.77148438 16.03320312 C4.83533313 21.04778588 4.83533313 21.04778588 2.73803711 23.23193359 C-0.322253 24.91185768 -2.44424864 24.87348572 -5.92578125 24.82421875 C-7.73369141 24.8097168 -7.73369141 24.8097168 -9.578125 24.79492188 C-10.83238281 24.76978516 -12.08664062 24.74464844 -13.37890625 24.71875 C-14.64863281 24.70521484 -15.91835938 24.69167969 -17.2265625 24.67773438 C-20.36110469 24.6423824 -23.4947917 24.59303248 -26.62890625 24.53125 C-25.10334659 29.34247847 -25.10334659 29.34247847 -21.62890625 32.53125 C-14.63604436 32.99385471 -8.32261022 32.59085122 -1.62890625 30.53125 C-0.79841155 34.49916914 -0.33107294 37.63775007 -1.62890625 41.53125 C-8.46000573 46.08531632 -19.28935278 45.58587409 -27.140625 44.03515625 C-32.60525074 42.19279671 -35.97380773 39.31878435 -38.890625 34.40625 C-42.88863994 26.11800641 -41.12074068 19.24230611 -38.44140625 10.78125 C-35.36730318 5.26906519 -31.86859675 0.8926305 -26.44140625 -2.40625 C-17.82578972 -4.80732346 -7.24016428 -6.5283016 0 0 Z M-23.62890625 9.53125 C-25.90625635 12.34634993 -25.90625635 12.34634993 -25.62890625 15.53125 C-20.01890625 15.53125 -14.40890625 15.53125 -8.62890625 15.53125 C-8.13589368 10.04208594 -8.13589368 10.04208594 -9.69140625 7.65625 C-14.57130761 4.82275889 -19.41547647 6.28088988 -23.62890625 9.53125 Z " fill="#FAFDFD" transform="translate(277.62890625,58.46875)"/>
<path d="M0 0 C0.495 1.485 0.495 1.485 1 3 C-2.15859615 4.57929807 -5.55948074 4.1799634 -9.02978516 4.20532227 C-9.85913071 4.21522186 -10.68847626 4.22512146 -11.54295349 4.23532104 C-14.29162719 4.26697664 -17.04031818 4.29170949 -19.7890625 4.31640625 C-21.69192969 4.33697227 -23.59479227 4.35796865 -25.49765015 4.37937927 C-30.51176225 4.43463627 -35.52591582 4.48402953 -40.5401001 4.53222656 C-45.65437522 4.58241512 -50.76858994 4.63811498 -55.8828125 4.69335938 C-65.92182343 4.80098531 -75.96088675 4.90242042 -86 5 C-86.0252899 12.51138594 -86.04284141 20.02276097 -86.05493164 27.53417969 C-86.05997017 30.09115001 -86.06680107 32.64811743 -86.07543945 35.20507812 C-86.08752602 38.87370517 -86.09323301 42.54229423 -86.09765625 46.2109375 C-86.10281754 47.35992523 -86.10797882 48.50891296 -86.11329651 49.69271851 C-86.11337204 50.7536673 -86.11344757 51.81461609 -86.11352539 52.90771484 C-86.115746 53.84481293 -86.11796661 54.78191101 -86.12025452 55.74740601 C-86.14827043 58.03587302 -86.14827043 58.03587302 -85 60 C-84.92934383 62.04055005 -84.91578024 64.08334257 -84.9375 66.125 C-84.94652344 67.22070312 -84.95554687 68.31640625 -84.96484375 69.4453125 C-84.97644531 70.28835937 -84.98804688 71.13140625 -85 72 C-84.19044861 71.99777939 -83.38089722 71.99555878 -82.54681396 71.99327087 C-72.28121765 71.96641003 -62.01562547 71.94824027 -51.75 71.9375 C-50.93753185 71.93664398 -50.12506371 71.93578796 -49.28797531 71.93490601 C-25.50984926 71.91274845 -1.76232351 72.033631 22 73 C22 69.37 22 65.74 22 62 C20.35 61.34 18.7 60.68 17 60 C15.50039851 58.83841244 14.02198881 57.64910336 12.5625 56.4375 C7.16879311 52.49781951 2.56115055 52.23683359 -3.99609375 52.265625 C-7 52 -7 52 -8.9296875 50.62109375 C-10 49 -10 49 -9.6875 46.8125 C-9.460625 46.214375 -9.23375 45.61625 -9 45 C-6.125 44.375 -6.125 44.375 -3 44 C-2.34 44.66 -1.68 45.32 -1 46 C-1.375 48.625 -1.375 48.625 -2 51 C0.31 51 2.62 51 5 51 C5.495 50.01 5.495 50.01 6 49 C6.515625 49.2475 7.03125 49.495 7.5625 49.75 C10.92045473 50.09440561 12.56308343 48.71913227 15.31640625 46.91015625 C17 46 17 46 20 46 C19.979375 45.195625 19.95875 44.39125 19.9375 43.5625 C20 41 20 41 21 40 C21.23653523 37.47403741 21.42173692 34.96892793 21.5625 32.4375 C21.62727539 31.37112305 21.62727539 31.37112305 21.69335938 30.28320312 C21.79971777 28.52238088 21.90038846 26.7612168 22 25 C23.65 24.34 25.3 23.68 27 23 C27 22.34 27 21.68 27 21 C28.485 21.495 28.485 21.495 30 22 C30.6875 24.0625 30.6875 24.0625 31 26 C29.68 25.67 28.36 25.34 27 25 C26.99635437 25.59246521 26.99270874 26.18493042 26.98895264 26.79534912 C26.94715293 32.95999423 26.87782542 39.12389306 26.79248047 45.28808594 C26.76424896 47.58879127 26.74304534 49.88959399 26.72900391 52.19042969 C26.70760514 55.49725279 26.66096892 58.80290226 26.609375 62.109375 C26.60814636 63.13867126 26.60691772 64.16796753 26.60565186 65.22845459 C26.58593323 66.18914856 26.5662146 67.14984253 26.54589844 68.13964844 C26.53257477 69.40539703 26.53257477 69.40539703 26.51898193 70.69671631 C25.75955198 74.06712772 24.90438776 75.07750124 22 77 C18.56674282 77.59158484 15.1716946 77.53568499 11.6953125 77.50170898 C10.12399567 77.50981346 10.12399567 77.50981346 8.52093506 77.51808167 C5.05533672 77.53059754 1.59056446 77.51405816 -1.875 77.49609375 C-4.28108768 77.49624867 -6.68717562 77.49773649 -9.09326172 77.50050354 C-14.13715642 77.50188882 -19.18076721 77.48930743 -24.22460938 77.46655273 C-30.69467487 77.43816811 -37.16426848 77.4409039 -43.6343689 77.45364285 C-48.60314983 77.46059299 -53.57182141 77.45281827 -58.54058838 77.44038582 C-60.92644837 77.43586487 -63.31232008 77.43554011 -65.69818115 77.43945122 C-69.03080365 77.44235684 -72.36277252 77.42588671 -75.6953125 77.40405273 C-76.68452698 77.40855438 -77.67374146 77.41305603 -78.69293213 77.41769409 C-79.60137878 77.40778946 -80.50982544 77.39788483 -81.44580078 77.38768005 C-82.23334747 77.38525016 -83.02089417 77.38282026 -83.83230591 77.38031673 C-86.59538381 76.89554134 -87.97975814 75.9231554 -90 74 C-90.50793457 71.00195312 -90.50793457 71.00195312 -90.51757812 67.28125 C-90.5245874 66.60288086 -90.53159668 65.92451172 -90.53881836 65.22558594 C-90.55642323 62.98330749 -90.5447683 60.74229126 -90.53125 58.5 C-90.53394424 56.94205483 -90.53782609 55.38411129 -90.54284668 53.82617188 C-90.54874505 50.56103506 -90.5401684 47.29633594 -90.52148438 44.03125 C-90.49869399 39.84433149 -90.51181535 35.65843849 -90.53577423 31.47155762 C-90.55022344 28.25447858 -90.5456304 25.03764298 -90.53526306 21.82055664 C-90.53259331 20.27677286 -90.53587428 18.73296702 -90.54518127 17.18920898 C-90.55533323 15.03179325 -90.53986843 12.87604164 -90.51757812 10.71875 C-90.51439575 9.49091797 -90.51121338 8.26308594 -90.50793457 6.99804688 C-90 4 -90 4 -88.48944092 2.10710144 C-84.91582757 0.51784802 -81.49231719 0.56064768 -77.65136719 0.56762695 C-76.81197601 0.5574353 -75.97258484 0.54724365 -75.10775757 0.53674316 C-72.33739573 0.50658481 -69.56737951 0.49734292 -66.796875 0.48828125 C-64.87443897 0.47143667 -62.95201396 0.45328672 -61.02960205 0.43388367 C-55.97277269 0.38635361 -50.91598803 0.35656365 -45.85900879 0.33044434 C-40.69758269 0.30065402 -35.5363107 0.25411843 -30.375 0.20898438 C-20.25008056 0.12291704 -10.12512944 0.05558696 0 0 Z " fill="#C1D6E4" transform="translate(107,32)"/>
<path d="M0 0 C3.13236841 1.37816132 5.39902732 3.79873074 7.83081055 6.14550781 C9.84029243 8.05388369 11.86250954 9.94736184 13.89331055 11.83300781 C14.71186523 12.60773438 15.53041992 13.38246094 16.3737793 14.18066406 C19.5848753 16.28654563 21.46493216 16.10872444 25.26831055 15.95800781 C31.65662576 16.25576827 35.94507281 17.87827219 41.26831055 21.20800781 C41.92879395 21.58844238 42.58927734 21.96887695 43.26977539 22.36083984 C45.10424805 23.60644531 45.10424805 23.60644531 47.89331055 26.83300781 C47.89331055 30.46300781 47.89331055 34.09300781 47.89331055 37.83300781 C37.99331055 37.83300781 28.09331055 37.83300781 17.89331055 37.83300781 C17.89331055 37.17300781 17.89331055 36.51300781 17.89331055 35.83300781 C17.23331055 35.60613281 16.57331055 35.37925781 15.89331055 35.14550781 C13.34711203 34.03154596 11.56731383 32.91583581 9.33081055 31.33300781 C4.95386355 28.48425483 0.75411518 28.04209213 -4.3449707 27.34472656 C-8.05050322 26.6581286 -10.23133392 25.24028222 -13.10668945 22.83300781 C-13.72543945 22.341875 -14.34418945 21.85074219 -14.98168945 21.34472656 C-19.94776088 17.30979353 -19.94776088 17.30979353 -21.10668945 13.83300781 C-18.03881669 11.4581249 -14.95015189 9.11193112 -11.85668945 6.77050781 C-10.98399414 6.09439453 -10.11129883 5.41828125 -9.2121582 4.72167969 C-8.36782227 4.08681641 -7.52348633 3.45195313 -6.65356445 2.79785156 C-5.87851563 2.20609131 -5.1034668 1.61433105 -4.30493164 1.00463867 C-2.10668945 -0.16699219 -2.10668945 -0.16699219 0 0 Z " fill="#026C49" transform="translate(81.106689453125,67.1669921875)"/>
<path d="M0 0 C1.20849609 -0.00386719 1.20849609 -0.00386719 2.44140625 -0.0078125 C4.4375 0.125 4.4375 0.125 5.4375 1.125 C5.3720912 3.70270122 5.24460003 6.24261326 5.0625 8.8125 C5.01867187 9.52083984 4.97484375 10.22917969 4.9296875 10.95898438 C4.72014398 14.11086816 4.43166003 17.15940042 3.90234375 20.27734375 C3.41891065 23.23887932 3.33844379 26.00239082 3.375 29 C3.38853516 30.45019531 3.38853516 30.45019531 3.40234375 31.9296875 C3.41394531 32.65414062 3.42554688 33.37859375 3.4375 34.125 C6.90767445 35.29189383 7.36453343 35.15700288 11 33.5625 C14.72440691 31.56343081 15.92837547 29.02321745 17.4375 25.125 C18.18279781 21.22940668 18.63165195 17.31628048 19.0625 13.375 C19.30163945 11.29652204 19.54367994 9.21837515 19.7890625 7.140625 C19.89041504 6.22571289 19.99176758 5.31080078 20.09619141 4.36816406 C20.4375 2.125 20.4375 2.125 21.4375 0.125 C23.24992052 0.09812721 25.06245233 0.07866285 26.875 0.0625 C27.88433594 0.05089844 28.89367187 0.03929687 29.93359375 0.02734375 C32.4375 0.125 32.4375 0.125 33.4375 1.125 C33.22968922 9.65864921 31.88010538 18.23085161 30.76293945 26.68286133 C30.49634166 28.71539102 30.24133931 30.74919115 29.98632812 32.78320312 C29.73206055 34.71776367 29.73206055 34.71776367 29.47265625 36.69140625 C29.3219165 37.85615479 29.17117676 39.02090332 29.01586914 40.22094727 C28.4375 43.125 28.4375 43.125 26.4375 46.125 C24.34375 46.5234375 24.34375 46.5234375 21.9375 46.5 C21.1434375 46.50773437 20.349375 46.51546875 19.53125 46.5234375 C18.8403125 46.39195313 18.149375 46.26046875 17.4375 46.125 C16.7775 45.135 16.1175 44.145 15.4375 43.125 C14.715625 43.41375 13.99375 43.7025 13.25 44 C12.321875 44.37125 11.39375 44.7425 10.4375 45.125 C9.715625 45.49625 8.99375 45.8675 8.25 46.25 C3.97294944 47.58063795 -0.1346327 47.86661324 -4.5625 47.125 C-7.625 44.6875 -7.625 44.6875 -9.5625 42.125 C-9.8925 41.795 -10.2225 41.465 -10.5625 41.125 C-11.04818789 32.55204405 -10.61033249 24.02626574 -9.6875 15.5 C-9.60910889 14.75500244 -9.53071777 14.01000488 -9.44995117 13.24243164 C-8.94872527 8.99762974 -8.21543759 5.1042942 -6.5625 1.125 C-4.1828388 -0.0648306 -2.64764265 -0.00849966 0 0 Z " fill="#FAFDFD" transform="translate(434.5625,55.875)"/>
<path d="M0 0 C1.4251286 0.00503579 2.85025896 0.00959494 4.27539062 0.01367188 C7.70446493 0.02448818 11.13347032 0.04163239 14.5625 0.0625 C15.70155625 4.674483 15.06826582 7.54520255 13.5625 12.0625 C11.95568359 12.15337891 11.95568359 12.15337891 10.31640625 12.24609375 C8.91925609 12.33048537 7.52212143 12.41513406 6.125 12.5 C5.06442383 12.55897461 5.06442383 12.55897461 3.98242188 12.61914062 C0.47559581 12.53874438 0.47559581 12.53874438 -2.4375 14.0625 C-2.85930373 16.37508896 -3.22617054 18.67411434 -3.55859375 21 C-3.66341568 21.71293213 -3.76823761 22.42586426 -3.87623596 23.16040039 C-4.09924665 24.68346687 -4.32020428 26.20683512 -4.53930664 27.73046875 C-4.86573513 29.99813776 -5.19885266 32.26473722 -5.53320312 34.53125 C-6.42679283 40.6496424 -7.3126959 46.76141814 -7.97314453 52.91015625 C-8.05790543 53.69076416 -8.14266632 54.47137207 -8.22999573 55.27563477 C-8.38843371 56.76877552 -8.53912625 58.2627642 -8.68101501 59.75756836 C-9.21820836 64.84320836 -9.21820836 64.84320836 -11.4375 67.0625 C-14.2578125 67.2578125 -14.2578125 67.2578125 -17.5625 67.1875 C-18.65820312 67.16945313 -19.75390625 67.15140625 -20.8828125 67.1328125 C-21.72585938 67.10960938 -22.56890625 67.08640625 -23.4375 67.0625 C-23.90006116 54.34206814 -21.67620099 41.55049194 -19.4375 29.0625 C-19.1727093 27.55737389 -18.90842436 26.05215875 -18.64453125 24.546875 C-17.91463621 20.38436106 -17.17575508 16.22357411 -16.4375 12.0625 C-21.7175 12.0625 -26.9975 12.0625 -32.4375 12.0625 C-34.096714 8.744072 -33.01009528 5.66985024 -32.4375 2.0625 C-27.52035003 -2.85464997 -7.01578497 -0.04404082 0 0 Z " fill="#FAFDFD" transform="translate(367.4375,34.9375)"/>
<path d="M0 0 C3.03341506 -0.23333962 5.97150313 -0.33414239 9 0 C10.9375 1.6875 10.9375 1.6875 13 4 C16.25732031 5.82803509 19.61475017 7.42366229 23 9 C23 9.66 23 10.32 23 11 C21.42127834 12.2087998 19.78553783 13.34380299 18.125 14.4375 C14.01651785 17.14722541 11.66586666 19.00240001 10.0625 23.8125 C9 27 9 27 7.3125 30.125 C5.83019337 33.37195738 5.95722337 33.77687222 7 37 C7.33762309 42.3175637 7.53866316 45.72919964 4 50 C0.19572635 52.9588795 -3.20332488 53.83740084 -8 54 C-11.52204813 53.05568275 -14.74622117 51.62688941 -18 50 C-17.67 49.34 -17.34 48.68 -17 48 C-17.99 47.67 -18.98 47.34 -20 47 C-23.04556865 42.5621714 -24.82071553 39.51051857 -24 34 C-22.33901919 29.84754798 -20.42333045 26.88843507 -17 24 C-11.36457579 22.12152526 -5.7706379 23.05785504 0 24 C-0.70768358 21.04199472 -0.70768358 21.04199472 -2 18 C-3.83916925 16.90293282 -3.83916925 16.90293282 -6 16 C-7.42831735 15.18679742 -8.84524447 14.35325892 -10.25 13.5 C-10.95640625 13.0771875 -11.6628125 12.654375 -12.390625 12.21875 C-12.92171875 11.8165625 -13.4528125 11.414375 -14 11 C-14 10.34 -14 9.68 -14 9 C-12.56328432 8.35242375 -11.12559584 7.70700547 -9.6875 7.0625 C-8.88699219 6.70285156 -8.08648437 6.34320312 -7.26171875 5.97265625 C-5 5 -5 5 -2 4 C-0.79117904 1.99983534 -0.79117904 1.99983534 0 0 Z M0 24 C0.66 25.32 1.32 26.64 2 28 C2.33 27.34 2.66 26.68 3 26 C2.67 25.34 2.34 24.68 2 24 C1.34 24 0.68 24 0 24 Z M-6 32 C-6 33.32 -6 34.64 -6 36 C-4.68 36.33 -3.36 36.66 -2 37 C-1.67 35.35 -1.34 33.7 -1 32 C-2.65 32 -4.3 32 -6 32 Z M-14 40 C-14.33 40.99 -14.66 41.98 -15 43 C-14.01 44.485 -14.01 44.485 -13 46 C-11.68 45.67 -10.36 45.34 -9 45 C-9.33 43.35 -9.66 41.7 -10 40 C-11.32 40 -12.64 40 -14 40 Z " fill="#F4F9FB" transform="translate(135,0)"/>
<path d="M0 0 C5.28 0 10.56 0 16 0 C15.44059956 11.74740918 14.16718296 23.24173571 12.47094727 34.87670898 C12.05769495 37.72056665 11.65819629 40.5661413 11.25976562 43.41210938 C10.99820519 45.23709535 10.73586461 47.06196972 10.47265625 48.88671875 C10.29598167 50.1507679 10.29598167 50.1507679 10.11573792 51.44035339 C9.50635863 55.55792803 8.78948265 59.19536454 7 63 C4.68756208 63.02685412 2.3750373 63.04632841 0.0625 63.0625 C-1.22527344 63.07410156 -2.51304687 63.08570313 -3.83984375 63.09765625 C-7 63 -7 63 -8 62 C-7.92241563 50.45447529 -5.92716514 38.82353509 -4.41601562 27.40039062 C-3.99545468 24.21557935 -3.58328687 21.02975473 -3.171875 17.84375 C-2.90674336 15.81764371 -2.64113624 13.79159957 -2.375 11.765625 C-2.1905835 10.33769623 -2.1905835 10.33769623 -2.00244141 8.88092041 C-1.88562012 8.00530457 -1.76879883 7.12968872 -1.6484375 6.22753906 C-1.54708496 5.45702209 -1.44573242 4.68650513 -1.34130859 3.89263916 C-1 2 -1 2 0 0 Z " fill="#4664CC" transform="translate(675,39)"/>
<path d="M0 0 C0.99 0.33 1.98 0.66 3 1 C3.6875 3.0625 3.6875 3.0625 4 5 C2.68 4.67 1.36 4.34 0 4 C-0.00364563 4.59246521 -0.00729126 5.18493042 -0.01104736 5.79534912 C-0.05284707 11.95999423 -0.12217458 18.12389306 -0.20751953 24.28808594 C-0.23575104 26.58879127 -0.25695466 28.88959399 -0.27099609 31.19042969 C-0.29239486 34.49725279 -0.33903108 37.80290226 -0.390625 41.109375 C-0.39246796 42.6533194 -0.39246796 42.6533194 -0.39434814 44.22845459 C-0.53861028 51.2569233 -0.53861028 51.2569233 -2.64794922 54.65405273 C-5.6971041 56.39891373 -7.7334264 56.47209055 -11.2421875 56.42578125 C-12.47453125 56.41740234 -13.706875 56.40902344 -14.9765625 56.40039062 C-16.26304688 56.37138672 -17.54953125 56.34238281 -18.875 56.3125 C-20.1228125 56.30283203 -21.370625 56.29316406 -22.65625 56.28320312 C-31.13784904 56.18223171 -39.54809292 55.69386195 -48 55 C-48 54.01 -48 53.02 -48 52 C-42.72462469 51.09695305 -37.78195237 50.92892443 -32.44140625 51.12109375 C-31.65225327 51.14470474 -30.86310028 51.16831573 -30.05003357 51.19264221 C-27.55397479 51.26861036 -25.05828021 51.3529177 -22.5625 51.4375 C-20.86004327 51.49078782 -19.1575693 51.54352763 -17.45507812 51.59570312 C-13.30315914 51.72413374 -9.15154563 51.86003886 -5 52 C-5 48.37 -5 44.74 -5 41 C-6.65 40.34 -8.3 39.68 -10 39 C-11.49960149 37.83841244 -12.97801119 36.64910336 -14.4375 35.4375 C-19.83120689 31.49781951 -24.43884945 31.23683359 -30.99609375 31.265625 C-34 31 -34 31 -35.9296875 29.62109375 C-37 28 -37 28 -36.6875 25.8125 C-36.460625 25.214375 -36.23375 24.61625 -36 24 C-33.125 23.375 -33.125 23.375 -30 23 C-29.34 23.66 -28.68 24.32 -28 25 C-28.375 27.625 -28.375 27.625 -29 30 C-26.69 30 -24.38 30 -22 30 C-21.67 29.34 -21.34 28.68 -21 28 C-20.484375 28.2475 -19.96875 28.495 -19.4375 28.75 C-16.07954527 29.09440561 -14.43691657 27.71913227 -11.68359375 25.91015625 C-10 25 -10 25 -7 25 C-7.020625 24.195625 -7.04125 23.39125 -7.0625 22.5625 C-7 20 -7 20 -6 19 C-5.76346477 16.47403741 -5.57826308 13.96892793 -5.4375 11.4375 C-5.37272461 10.37112305 -5.37272461 10.37112305 -5.30664062 9.28320312 C-5.20028223 7.52238088 -5.09961154 5.7612168 -5 4 C-3.35 3.34 -1.7 2.68 0 2 C0 1.34 0 0.68 0 0 Z " fill="#BDD8DB" transform="translate(134,53)"/>
<path d="M0 0 C3.03341506 -0.23333962 5.97150313 -0.33414239 9 0 C10.9375 1.6875 10.9375 1.6875 13 4 C16.25732031 5.82803509 19.61475017 7.42366229 23 9 C23 9.66 23 10.32 23 11 C21.42127834 12.2087998 19.78553783 13.34380299 18.125 14.4375 C14.01651785 17.14722541 11.66586666 19.00240001 10.0625 23.8125 C8.97937221 27.06188338 7.58719925 29.96989234 6 33 C-0.62778115 28.58724754 -0.62778115 28.58724754 -1.546875 24.66796875 C-1.6875 22.25 -1.6875 22.25 -1.63671875 19.953125 C-1.75660156 19.30859375 -1.87648437 18.6640625 -2 18 C-3.77271426 16.80284918 -3.77271426 16.80284918 -6 16 C-7.42831735 15.18679742 -8.84524447 14.35325892 -10.25 13.5 C-10.95640625 13.0771875 -11.6628125 12.654375 -12.390625 12.21875 C-12.92171875 11.8165625 -13.4528125 11.414375 -14 11 C-14 10.34 -14 9.68 -14 9 C-12.56328432 8.35242375 -11.12559584 7.70700547 -9.6875 7.0625 C-8.88699219 6.70285156 -8.08648437 6.34320312 -7.26171875 5.97265625 C-5 5 -5 5 -2 4 C-0.79117904 1.99983534 -0.79117904 1.99983534 0 0 Z M0 24 C0.66 25.32 1.32 26.64 2 28 C2.33 27.34 2.66 26.68 3 26 C2.67 25.34 2.34 24.68 2 24 C1.34 24 0.68 24 0 24 Z " fill="#2CB2E7" transform="translate(135,0)"/>
<path d="M0 0 C9.92150989 -0.62552427 9.92150989 -0.62552427 14.125 1.8125 C16.89247272 5.04121817 17.12191534 7.5878413 17.0625 11.6875 C17.05347656 12.49574219 17.04445313 13.30398437 17.03515625 14.13671875 C17.02355469 14.75160156 17.01195313 15.36648437 17 16 C16.34 16 15.68 16 15 16 C14.731875 16.61875 14.46375 17.2375 14.1875 17.875 C13 20 13 20 10 22 C5.03134385 22.66248749 2.09824625 22.56954654 -2 19.5625 C-4.68719205 16.97347022 -5.48794452 15.16291724 -5.625 11.4375 C-5.31898882 7.66336214 -4.48053266 4.95755817 -2 2 C-1.34 2 -0.68 2 0 2 C0 1.34 0 0.68 0 0 Z " fill="#F98E23" transform="translate(66,42)"/>
<path d="M0 0 C28.05 0 56.1 0 85 0 C85 1.65 85 3.3 85 5 C84.38161255 4.26656372 84.38161255 4.26656372 83.75073242 3.51831055 C81.62846375 1.67778776 80.75064629 1.64472226 77.98828125 1.70703125 C77.23095703 1.71669922 76.47363281 1.72636719 75.69335938 1.73632812 C74.90767578 1.76146484 74.12199219 1.78660156 73.3125 1.8125 C72.51521484 1.82603516 71.71792969 1.83957031 70.89648438 1.85351562 C68.93070033 1.88882911 66.96526418 1.94263553 65 2 C65 2.66 65 3.32 65 4 C65.99 4.495 65.99 4.495 67 5 C67.625 7.5625 67.625 7.5625 68 10 C67.01 10.33 66.02 10.66 65 11 C64.67 14.3 64.34 17.6 64 21 C63.34 21 62.68 21 62 21 C61.90203125 20.16855469 61.8040625 19.33710937 61.703125 18.48046875 C61.55359375 17.39378906 61.4040625 16.30710937 61.25 15.1875 C61.11078125 14.10855469 60.9715625 13.02960937 60.828125 11.91796875 C60.23001538 8.96563913 60.23001538 8.96563913 58.28125 7.15625 C55.51666201 5.75502047 53.3366574 5.49622961 50.25 5.3125 C48.77273437 5.21388672 48.77273437 5.21388672 47.265625 5.11328125 C46.51796875 5.07589844 45.7703125 5.03851563 45 5 C45 5.66 45 6.32 45 7 C44.01 7.66 43.02 8.32 42 9 C41.19907746 11.64691668 41.19907746 11.64691668 40.8125 14.625 C40.57466797 16.12933594 40.57466797 16.12933594 40.33203125 17.6640625 C40.22246094 18.43492188 40.11289062 19.20578125 40 20 C39.34 19.67 38.68 19.34 38 19 C37.63473747 16.67145135 37.30649316 14.33701038 37 12 C36.649375 10.948125 36.29875 9.89625 35.9375 8.8125 C35 6 35 6 35 2 C33.68 1.67 32.36 1.34 31 1 C30.67 1.66 30.34 2.32 30 3 C29.01 2.67 28.02 2.34 27 2 C25.33534935 1.90685549 23.66725319 1.86930792 22 1.8671875 C21.030625 1.86589844 20.06125 1.86460938 19.0625 1.86328125 C18.051875 1.86714844 17.04125 1.87101562 16 1.875 C14.4840625 1.86919922 14.4840625 1.86919922 12.9375 1.86328125 C11.968125 1.86457031 10.99875 1.86585937 10 1.8671875 C9.113125 1.86831543 8.22625 1.86944336 7.3125 1.87060547 C4.83998715 1.9073744 4.83998715 1.9073744 2 3 C1.67 6.96 1.34 10.92 1 15 C0.67 15 0.34 15 0 15 C0 10.05 0 5.1 0 0 Z " fill="#095F99" transform="translate(21,37)"/>
<path d="M0 0 C0.66 0 1.32 0 2 0 C1.29880002 3.15539989 0.21138129 6.00717565 -1 9 C-1.67795528 10.99620166 -2.34733531 12.99538701 -3 15 C-3.66 15 -4.32 15 -5 15 C-5.33 16.98 -5.66 18.96 -6 21 C-4.35 20.67 -2.7 20.34 -1 20 C-0.67 20.99 -0.34 21.98 0 23 C4.06024321 20.96197865 4.06024321 20.96197865 6 17 C6.99 17 7.98 17 9 17 C9.103125 16.236875 9.20625 15.47375 9.3125 14.6875 C10.07457533 11.70847824 10.58441991 10.82841139 13 9 C15.32836914 8.71948242 15.32836914 8.71948242 18.03515625 8.85546875 C19.49598633 8.92411133 19.49598633 8.92411133 20.98632812 8.99414062 C22.5090332 9.08985352 22.5090332 9.08985352 24.0625 9.1875 C25.08150391 9.23197266 26.10050781 9.27644531 27.15039062 9.32226562 C34.72907366 9.72907366 34.72907366 9.72907366 37 12 C37.56520003 14.65537372 37.73788198 17.29144713 38 20 C42.455 20.99 42.455 20.99 47 22 C47 18.7 47 15.4 47 12 C47.66 12 48.32 12 49 12 C49 10.35 49 8.7 49 7 C52.29143021 12.64245179 53.27226106 17.63869468 52 24 C46.72 24 41.44 24 36 24 C34 17 34 17 34 12 C26.74 12 19.48 12 12 12 C11.34 13.98 10.68 15.96 10 18 C8.390625 21.3515625 8.390625 21.3515625 6 24 C2.95254181 24.45895455 0.7502035 24.5817278 -2.25 24.375 C-3.36761719 24.33439453 -3.36761719 24.33439453 -4.5078125 24.29296875 C-6.33978993 24.22250808 -8.17027151 24.11488993 -10 24 C-10.24143309 20.09783769 -9.6745885 17.77705637 -7.8125 14.35546875 C-7.36132812 13.51435547 -6.91015625 12.67324219 -6.4453125 11.80664062 C-5.96835937 10.94232422 -5.49140625 10.07800781 -5 9.1875 C-4.52304687 8.30384766 -4.04609375 7.42019531 -3.5546875 6.50976562 C-2.37894925 4.33464986 -1.19388736 2.16519092 0 0 Z " fill="#373091" transform="translate(609,78)"/>
<path d="M0 0 C0.74886475 0.00523682 1.49772949 0.01047363 2.26928711 0.01586914 C3.07817383 0.0190918 3.88706055 0.02231445 4.72045898 0.02563477 C5.5705957 0.03401367 6.42073242 0.04239258 7.29663086 0.05102539 C8.15063477 0.05553711 9.00463867 0.06004883 9.88452148 0.06469727 C12.00108749 0.07652166 14.11761771 0.0944577 16.23413086 0.11352539 C18.32449614 4.73681077 19.30738884 9.4906286 20.35913086 14.42602539 C20.54088867 15.26198242 20.72264648 16.09793945 20.90991211 16.95922852 C21.35518451 19.00982511 21.79518606 21.06156501 22.23413086 23.11352539 C20.58413086 23.11352539 18.93413086 23.11352539 17.23413086 23.11352539 C16.30282753 20.01156891 16.21008167 17.40045619 16.35913086 14.17602539 C16.40213548 10.01686395 16.12964769 7.33076632 13.23413086 4.11352539 C12.24413086 4.11352539 11.25413086 4.11352539 10.23413086 4.11352539 C10.23413086 5.10352539 10.23413086 6.09352539 10.23413086 7.11352539 C9.12038086 6.90727539 8.00663086 6.70102539 6.85913086 6.48852539 C5.66288086 6.36477539 4.46663086 6.24102539 3.23413086 6.11352539 C2.57413086 6.77352539 1.91413086 7.43352539 1.23413086 8.11352539 C0.24413086 8.11352539 -0.74586914 8.11352539 -1.76586914 8.11352539 C-1.76586914 8.77352539 -1.76586914 9.43352539 -1.76586914 10.11352539 C-1.10586914 10.11352539 -0.44586914 10.11352539 0.23413086 10.11352539 C0.23413086 12.09352539 0.23413086 14.07352539 0.23413086 16.11352539 C-0.69399414 16.54665039 -1.62211914 16.97977539 -2.57836914 17.42602539 C-5.28332848 18.85806269 -6.72003024 19.96539455 -8.76586914 22.11352539 C-9.42586914 22.11352539 -10.08586914 22.11352539 -10.76586914 22.11352539 C-10.04828612 16.40997762 -7.15705555 0.46011763 0 0 Z " fill="#3DC3F6" transform="translate(631.765869140625,38.886474609375)"/>
<path d="M0 0 C8.23115578 -0.63316583 8.23115578 -0.63316583 11.125 1.75 C11.74375 2.4925 12.3625 3.235 13 4 C15.27322165 5.46915635 17.61385307 6.71515165 20 8 C20 8.66 20 9.32 20 10 C19.44127197 10.01981934 18.88254395 10.03963867 18.30688477 10.06005859 C15.72502582 10.1565219 13.14384608 10.26569812 10.5625 10.375 C9.68400391 10.4059375 8.80550781 10.436875 7.90039062 10.46875 C2.70363243 10.69886475 -2.07592409 11.31297814 -7.10351562 12.66992188 C-9.83592113 13.14548988 -11.64755113 12.36593805 -14 11 C-14 10.34 -14 9.68 -14 9 C-12.56328432 8.35242375 -11.12559584 7.70700547 -9.6875 7.0625 C-8.88699219 6.70285156 -8.08648437 6.34320312 -7.26171875 5.97265625 C-5 5 -5 5 -2 4 C-0.79117904 1.99983534 -0.79117904 1.99983534 0 0 Z " fill="#D4E7C5" transform="translate(135,0)"/>
<path d="M0 0 C1.485 0.99 1.485 0.99 3 2 C3.36749268 4.20307922 3.36749268 4.20307922 3.35644531 6.9777832 C3.35944641 8.01679276 3.36244751 9.05580231 3.36553955 10.126297 C3.35319275 11.2563768 3.34084595 12.3864566 3.328125 13.55078125 C3.32625183 14.71570602 3.32437866 15.8806308 3.32244873 17.08085632 C3.3157107 19.55661868 3.30176187 22.03237009 3.28125 24.50805664 C3.25044168 28.25872943 3.24031175 32.00897954 3.234375 35.75976562 C3.22518984 38.16927584 3.21480932 40.57878186 3.203125 42.98828125 C3.19675018 44.65000114 3.19675018 44.65000114 3.19024658 46.34529114 C3.00096272 67.49855591 3.00096272 67.49855591 0 72 C-1.86985821 70.13014179 -1.12779348 66.96852379 -1.12939453 64.4765625 C-1.13114685 63.79527283 -1.13289917 63.11398315 -1.13470459 62.41204834 C-1.13912242 60.14967333 -1.13618538 57.88737587 -1.1328125 55.625 C-1.13348556 54.0594074 -1.1344556 52.4938149 -1.13571167 50.92822266 C-1.13718855 47.64289355 -1.13503441 44.35759158 -1.13037109 41.07226562 C-1.1246738 36.85179484 -1.12795286 32.63138764 -1.13394356 28.41091919 C-1.13754944 25.17683428 -1.13641046 21.94276455 -1.13381577 18.7086792 C-1.13314657 17.15207919 -1.13397466 15.59547782 -1.13629532 14.03887939 C-1.1388223 11.86702804 -1.13498065 9.69528104 -1.12939453 7.5234375 C-1.12859894 6.28513184 -1.12780334 5.04682617 -1.12698364 3.77099609 C-1 1 -1 1 0 0 Z " fill="#CBDFEA" transform="translate(18,35)"/>
<path d="M0 0 C5.28 0 10.56 0 16 0 C15.855625 2.578125 15.71125 5.15625 15.5625 7.8125 C15.49784546 9.02450073 15.49784546 9.02450073 15.43188477 10.26098633 C15.24715282 13.37409057 14.99049694 16.02850917 14 19 C13.34 19 12.68 19 12 19 C11.67 19.99 11.34 20.98 11 22 C11 16.39 11 10.78 11 5 C11.66 4.67 12.32 4.34 13 4 C12.01 3.67 11.02 3.34 10 3 C10 3.99 10 4.98 10 6 C9.01 6.33 8.02 6.66 7 7 C6.34 6.01 5.68 5.02 5 4 C4.01 4.99 3.02 5.98 2 7 C2.99 6.67 3.98 6.34 5 6 C6 8 6 8 5.75 9.9375 C4.90193356 12.26968272 3.8549004 13.38704313 2 15 C2.66 15 3.32 15 4 15 C4.33 15.99 4.66 16.98 5 18 C4 19 4 19 0.4375 19.0625 C-0.696875 19.041875 -1.83125 19.02125 -3 19 C-2.6920761 16.20775806 -2.37887563 13.41628573 -2.0625 10.625 C-1.97548828 9.8309375 -1.88847656 9.036875 -1.79882812 8.21875 C-1.11328125 2.2265625 -1.11328125 2.2265625 0 0 Z " fill="#59C9ED" transform="translate(675,39)"/>
<path d="M0 0 C0.33 0 0.66 0 1 0 C1.02505615 1.19077148 1.0501123 2.38154297 1.07592773 3.60839844 C1.17014647 8.02907958 1.27033189 12.4496089 1.37231445 16.87011719 C1.41560857 18.78284146 1.45728756 20.695603 1.49731445 22.60839844 C1.5551508 25.35883818 1.61880676 28.10909128 1.68359375 30.859375 C1.70030624 31.71368103 1.71701874 32.56798706 1.73423767 33.44818115 C1.75418289 34.24870911 1.77412811 35.04923706 1.79467773 35.87402344 C1.81022202 36.57573669 1.8257663 37.27744995 1.84178162 38.00042725 C2.00726836 40.09185797 2.43584497 41.98256308 3 44 C3.495 43.505 3.495 43.505 4 43 C6.67058851 42.85884839 9.32432238 42.95752893 12 43 C12.33 40.69 12.66 38.38 13 36 C15.53946923 35.15351026 16.90562398 34.97928331 19.5625 35.5625 C22.24805134 36.33510992 22.24805134 36.33510992 25 34 C24.71656433 37.13905003 24.00986916 37.99133244 21.59375 40.11328125 C20.5728125 40.83902344 19.551875 41.56476563 18.5 42.3125 C13.80403161 45.68032281 9.27000658 49.17038555 4.83984375 52.8828125 C4.23269531 53.25148437 3.62554688 53.62015625 3 54 C2.01 53.67 1.02 53.34 0 53 C0 35.51 0 18.02 0 0 Z " fill="#4BB0BB" transform="translate(20,37)"/>
<path d="M0 0 C2.09310248 1.80767941 2.96191018 2.87987058 3.8125 5.5625 C4.83077151 8.33285604 4.83077151 8.33285604 8.125 9.3125 C9.07375 9.539375 10.0225 9.76625 11 10 C11 10.99 11 11.98 11 13 C10.05125 13.20625 9.1025 13.4125 8.125 13.625 C4.70833333 14.70833333 4.70833333 14.70833333 3.625 18.125 C3.41875 19.07375 3.2125 20.0225 3 21 C1.68 21 0.36 21 -1 21 C-1.433125 20.236875 -1.86625 19.47375 -2.3125 18.6875 C-4.65484154 14.95710421 -6.91118793 14.46580055 -11 13 C-10.67 12.01 -10.34 11.02 -10 10 C-8.2984375 9.5978125 -8.2984375 9.5978125 -6.5625 9.1875 C-5.386875 8.795625 -4.21125 8.40375 -3 8 C-1.52437773 5.07416306 -1.52437773 5.07416306 -1 2 C-0.67 1.34 -0.34 0.68 0 0 Z " fill="#F9B14D" transform="translate(157,19)"/>
<path d="M0 0 C0.50512244 1.60256108 1.00391627 3.20711792 1.5 4.8125 C1.7784375 5.70582031 2.056875 6.59914063 2.34375 7.51953125 C3 10 3 10 3 13 C3.556875 13.226875 4.11375 13.45375 4.6875 13.6875 C7.63246684 15.35896766 9.68156544 17.55276352 12 20 C11.67 20.66 11.34 21.32 11 22 C7.67689517 20.83242263 5.16638868 19.85051143 3 17 C3 16.01 3 15.02 3 14 C2.34 14 1.68 14 1 14 C0.34 15.32 -0.32 16.64 -1 18 C-3.50037734 15.82575883 -4.43628586 14.26954202 -5 11 C-4.01 10.34 -3.02 9.68 -2 9 C-2 6.69 -2 4.38 -2 2 C-30.05 2 -58.1 2 -87 2 C-87 1.67 -87 1.34 -87 1 C-75.95191927 0.86947822 -64.90383707 0.73908229 -53.85575294 0.60884857 C-48.72610018 0.54837675 -43.59644795 0.487861 -38.46679688 0.42724609 C-33.51960748 0.36878886 -28.57241675 0.3104454 -23.62522507 0.25218201 C-21.73452074 0.22989484 -19.8438169 0.20756614 -17.95311356 0.18519592 C-15.31200536 0.15395412 -12.67089549 0.12285782 -10.02978516 0.09179688 C-8.84835182 0.07777077 -8.84835182 0.07777077 -7.64305115 0.0634613 C-2.22810432 0 -2.22810432 0 0 0 Z " fill="#5B9CC4" transform="translate(108,35)"/>
<path d="M0 0 C9.92150989 -0.62552427 9.92150989 -0.62552427 14.125 1.8125 C16.89247272 5.04121817 17.12191534 7.5878413 17.0625 11.6875 C17.05347656 12.49574219 17.04445313 13.30398437 17.03515625 14.13671875 C17.02355469 14.75160156 17.01195313 15.36648437 17 16 C16.34 16 15.68 16 15 16 C14.731875 16.61875 14.46375 17.2375 14.1875 17.875 C13 20 13 20 10 22 C5.03134385 22.66248749 2.09824625 22.56954654 -2 19.5625 C-4.68719205 16.97347022 -5.48794452 15.16291724 -5.625 11.4375 C-5.31898882 7.66336214 -4.48053266 4.95755817 -2 2 C-1.34 2 -0.68 2 0 2 C0 1.34 0 0.68 0 0 Z M-1 3 C-1 3.66 -1 4.32 -1 5 C-1.66 5 -2.32 5 -3 5 C-3 8.3 -3 11.6 -3 15 C3.18302511 18.26326325 8.71764358 15.8908063 15 14 C15 11.03 15 8.06 15 5 C14.34 5 13.68 5 13 5 C13 4.34 13 3.68 13 3 C12.01 3 11.02 3 10 3 C10 2.34 10 1.68 10 1 C8.1128125 0.938125 8.1128125 0.938125 6.1875 0.875 C5.47980469 0.85179687 4.77210937 0.82859375 4.04296875 0.8046875 C1.68640281 0.86745538 1.68640281 0.86745538 -1 3 Z " fill="#D3A445" transform="translate(66,42)"/>
<path d="M0 0 C2 1.125 2 1.125 4 3 C4.1875 5.9375 4.1875 5.9375 4 9 C4.32380126 10.33568021 4.65657551 11.66923011 5 13 C5.03786901 14.66623639 5.04627845 16.33397597 5 18 C4.34 18 3.68 18 3 18 C2.01 14.37 1.02 10.74 0 7 C-0.45375 7.825 -0.9075 8.65 -1.375 9.5 C-1.91125 10.325 -2.4475 11.15 -3 12 C-3.66 12 -4.32 12 -5 12 C-5.33 13.32 -5.66 14.64 -6 16 C-6.721875 15.979375 -7.44375 15.95875 -8.1875 15.9375 C-12.04784678 16.02328548 -15.34543825 16.78181275 -19 18 C-19.46450943 11.49686791 -18.32575612 7.5825192 -15 2 C-13.875 5.75 -13.875 5.75 -15 8 C-14.01 7.67 -13.02 7.34 -12 7 C-12 8.32 -12 9.64 -12 11 C-11.01 11.33 -10.02 11.66 -9 12 C-8.67 11.67 -8.34 11.34 -8 11 C-7.01 10.67 -6.02 10.34 -5 10 C-3.28432339 6.49705129 -3.28432339 6.49705129 -2 3 C-1.34 3 -0.68 3 0 3 C0 2.01 0 1.02 0 0 Z " fill="#447BD7" transform="translate(636,53)"/>
<path d="M0 0 C0.99 0.33 1.98 0.66 3 1 C3.6875 3.0625 3.6875 3.0625 4 5 C2.68 4.67 1.36 4.34 0 4 C-0.33 19.84 -0.66 35.68 -1 52 C-5.7218805 47.2781195 -4.0810013 37.51751921 -4.09765625 31.1484375 C-4.09512291 27.89055761 -4.07943127 24.6328319 -4.0625 21.375 C-4.05747477 19.68619924 -4.05291368 17.99739704 -4.04882812 16.30859375 C-4.03790399 12.20569289 -4.0206958 8.10286273 -4 4 C-2.68 3.34 -1.36 2.68 0 2 C0 1.34 0 0.68 0 0 Z " fill="#C4DAE4" transform="translate(134,53)"/>
<path d="M0 0 C0.33 0 0.66 0 1 0 C1 3.63 1 7.26 1 11 C-0.65 11 -2.3 11 -4 11 C-4.33 13.31 -4.66 15.62 -5 18 C-7.59179033 17.06407571 -9.6584157 16.30457291 -11.73046875 14.45703125 C-15.68751834 11.91661904 -20.19881992 12.5217506 -24.78515625 12.40625 C-28 12 -28 12 -29.953125 10.60546875 C-31 9 -31 9 -30.6875 6.8125 C-30.3471875 5.9153125 -30.3471875 5.9153125 -30 5 C-27.125 4.375 -27.125 4.375 -24 4 C-23.34 4.66 -22.68 5.32 -22 6 C-22.375 8.625 -22.375 8.625 -23 11 C-20.69 11 -18.38 11 -16 11 C-15.67 10.34 -15.34 9.68 -15 9 C-14.484375 9.2475 -13.96875 9.495 -13.4375 9.75 C-10.07954527 10.09440561 -8.43691657 8.71913227 -5.68359375 6.91015625 C-4 6 -4 6 -1 6 C-1.020625 5.195625 -1.04125 4.39125 -1.0625 3.5625 C-1 1 -1 1 0 0 Z " fill="#6CC1BA" transform="translate(128,72)"/>
<path d="M0 0 C0.99 0.33 1.98 0.66 3 1 C3.12375 1.639375 3.2475 2.27875 3.375 2.9375 C3.58125 3.618125 3.7875 4.29875 4 5 C6.47130918 6.15521502 6.47130918 6.15521502 9 7 C9.33 7.66 9.66 8.32 10 9 C9.05125 9.5775 8.1025 10.155 7.125 10.75 C4.23865902 12.82816551 3.15904259 13.75468075 2 17 C1.34 17 0.68 17 0 17 C-0.598125 16.236875 -1.19625 15.47375 -1.8125 14.6875 C-4.0228194 11.97196473 -5.93253932 10.61893758 -9 9 C-8 7 -8 7 -5.625 6.1875 C-2.37834986 4.71877732 -1.56476973 3.12953947 0 0 Z " fill="#DFAC72" transform="translate(111,0)"/>
<path d="M0 0 C0.33 0 0.66 0 1 0 C1.82556197 4.29641624 2.10688652 8.31964238 2.0625 12.69140625 C2.05476562 13.96693359 2.04703125 15.24246094 2.0390625 16.55664062 C2.02666999 17.89193306 2.01364686 19.22721979 2 20.5625 C1.90500571 30.10467619 2.09647197 39.49581289 3 49 C2.01 48.67 1.02 48.34 0 48 C0 44.37 0 40.74 0 37 C-1.65 36.34 -3.3 35.68 -5 35 C-6.4375 31.5625 -6.4375 31.5625 -7 28 C-6.01 26.515 -6.01 26.515 -5 25 C-3.68 25 -2.36 25 -1 25 C-0.67 16.75 -0.34 8.5 0 0 Z " fill="#86C9CA" transform="translate(129,57)"/>
<path d="M0 0 C2.6275765 4.91242564 2.26891852 8.64234404 1 14 C0.67 14.99 0.34 15.98 0 17 C0.33 17.99 0.66 18.98 1 20 C0.34 20 -0.32 20 -1 20 C-0.00864359 22.6273026 -0.00864359 22.6273026 2 25 C5.62599422 25.41725678 5.62599422 25.41725678 9 25 C11.14328358 18.70695459 13.12275039 12.37732315 15 6 C16.29573529 10.27853931 15.495141 13.89404114 14.625 18.1875 C14.48578125 18.92419922 14.3465625 19.66089844 14.203125 20.41992188 C13.14265179 25.85734821 13.14265179 25.85734821 12 27 C9.66839945 27.09909302 7.33370058 27.12970504 5 27.125 C3.72125 27.12757812 2.4425 27.13015625 1.125 27.1328125 C-2 27 -2 27 -3 26 C-2.83745004 17.23480607 -1.62250758 8.60086542 0 0 Z " fill="#3F36A0" transform="translate(670,75)"/>
<path d="M0 0 C2.0245738 1.93254772 3.42105792 3.63158688 5 6 C4.625 8.6875 4.625 8.6875 4 11 C1.36 11.66 -1.28 12.32 -4 13 C-4 13.66 -4 14.32 -4 15 C-6.31 14.34 -8.62 13.68 -11 13 C-10.67 12.01 -10.34 11.02 -10 10 C-8.2984375 9.5978125 -8.2984375 9.5978125 -6.5625 9.1875 C-5.386875 8.795625 -4.21125 8.40375 -3 8 C-1.52437773 5.07416306 -1.52437773 5.07416306 -1 2 C-0.67 1.34 -0.34 0.68 0 0 Z " fill="#FDDB77" transform="translate(157,19)"/>
<path d="M0 0 C0 1.65 0 3.3 0 5 C-2.24588836 5.55846957 -4.49693668 6.09621983 -6.75 6.625 C-8.62945312 7.07746094 -8.62945312 7.07746094 -10.546875 7.5390625 C-14.00812564 8.00108464 -15.20402902 7.96282811 -18 6 C-18 4.35 -18 2.7 -18 1 C-15.37504621 0.83257698 -12.75004205 0.6660283 -10.125 0.5 C-9.00544922 0.42845703 -9.00544922 0.42845703 -7.86328125 0.35546875 C-2.2265625 0 -2.2265625 0 0 0 Z " fill="#F6AA25" transform="translate(81,51)"/>
<path d="M0 0 C1 2 1 2 1 5 C1.33 5.66 1.66 6.32 2 7 C2.66 7 3.32 7 4 7 C4 8.98 4 10.96 4 13 C3.071875 13.433125 2.14375 13.86625 1.1875 14.3125 C-1.51745934 15.7445373 -2.9541611 16.85186916 -5 19 C-5.66 19 -6.32 19 -7 19 C-5.98525061 11.7452991 -3.91644371 6.188579 0 0 Z " fill="#4095E4" transform="translate(628,42)"/>
<path d="M0 0 C1.73540039 0.14501953 1.73540039 0.14501953 3.50585938 0.29296875 C4.70404297 0.40511719 5.90222656 0.51726563 7.13671875 0.6328125 C8.35423828 0.73722656 9.57175781 0.84164063 10.82617188 0.94921875 C13.82662432 1.20808131 16.82566174 1.47797679 19.82421875 1.7578125 C20.15421875 1.0978125 20.48421875 0.4378125 20.82421875 -0.2421875 C21.48421875 0.0878125 22.14421875 0.4178125 22.82421875 0.7578125 C22.82421875 1.4178125 22.82421875 2.0778125 22.82421875 2.7578125 C22.26549072 2.77763184 21.7067627 2.79745117 21.13110352 2.81787109 C18.54924457 2.9143344 15.96806483 3.02351062 13.38671875 3.1328125 C12.50822266 3.16375 11.62972656 3.1946875 10.72460938 3.2265625 C5.52785118 3.45667725 0.74829466 4.07079064 -4.27929688 5.42773438 C-7.01170238 5.90330238 -8.82333238 5.12375055 -11.17578125 3.7578125 C-11.17578125 3.0978125 -11.17578125 2.4378125 -11.17578125 1.7578125 C-7.19047922 -0.15590569 -4.38117752 -0.38847879 0 0 Z " fill="#A6DCD6" transform="translate(132.17578125,7.2421875)"/>
<path d="M0 0 C0.99 0 1.98 0 3 0 C3.66 0.66 4.32 1.32 5 2 C5.66 1.34 6.32 0.68 7 0 C7 0.66 7 1.32 7 2 C7.66 2 8.32 2 9 2 C8.34 3.98 7.68 5.96 7 8 C7.66 8.33 8.32 8.66 9 9 C8.01 10.98 7.02 12.96 6 15 C3.69 13.02 1.38 11.04 -1 9 C-0.67 8.01 -0.34 7.02 0 6 C0.66 6.66 1.32 7.32 2 8 C1.34 5.36 0.68 2.72 0 0 Z " fill="#2A9FDE" transform="translate(135,18)"/>
<path d="M0 0 C0.33 0 0.66 0 1 0 C1 3.63 1 7.26 1 11 C-8.9 11 -18.8 11 -29 11 C-29 10.34 -29 9.68 -29 9 C-29.66 8.67 -30.32 8.34 -31 8 C-30.67 7.34 -30.34 6.68 -30 6 C-27.44672322 6.43770459 -25.26492885 6.86753557 -22.9375 8.03125 C-18.68207179 9.4346359 -14.63473094 9.21122521 -10.1875 9.125 C-8.86202148 9.11146484 -8.86202148 9.11146484 -7.50976562 9.09765625 C-5.33972641 9.07419637 -3.16982753 9.03832865 -1 9 C-0.67 6.03 -0.34 3.06 0 0 Z " fill="#0A614C" transform="translate(128,94)"/>
<path d="M0 0 C0.66 0 1.32 0 2 0 C1.29880002 3.15539989 0.21138129 6.00717565 -1 9 C-1.67795528 10.99620166 -2.34733531 12.99538701 -3 15 C-3.66 15 -4.32 15 -5 15 C-5.33 16.98 -5.66 18.96 -6 21 C-4.35 20.67 -2.7 20.34 -1 20 C-0.67 20.99 -0.34 21.98 0 23 C-2.64 23 -5.28 23 -8 23 C-9.0831874 19.09632464 -9.00920286 17.15450956 -7.12890625 13.57421875 C-6.71962891 12.77822266 -6.31035156 11.98222656 -5.88867188 11.16210938 C-5.2322168 9.93717773 -5.2322168 9.93717773 -4.5625 8.6875 C-4.12873047 7.85154297 -3.69496094 7.01558594 -3.24804688 6.15429688 C-2.17771968 4.09597535 -1.09488625 2.04533259 0 0 Z " fill="#3F34A1" transform="translate(609,78)"/>
<path d="M0 0 C0.59240479 0.20447754 1.18480957 0.40895508 1.79516602 0.61962891 C1.79516602 1.60962891 1.79516602 2.59962891 1.79516602 3.61962891 C0.27922852 3.68150391 0.27922852 3.68150391 -1.26733398 3.74462891 C-5.41203411 4.30676435 -7.59274012 6.29475492 -10.52905273 9.14697266 C-12.31163337 10.71348291 -14.04957451 11.64764914 -16.20483398 12.61962891 C-16.20483398 14.92962891 -16.20483398 17.23962891 -16.20483398 19.61962891 C-17.85483398 17.96962891 -19.50483398 16.31962891 -21.20483398 14.61962891 C-17.46943292 10.69285056 -13.53050565 7.41825889 -9.14233398 4.24462891 C-8.53067383 3.78185547 -7.91901367 3.31908203 -7.28881836 2.84228516 C-2.71751928 -0.46881796 -2.71751928 -0.46881796 0 0 Z " fill="#03645B" transform="translate(81.204833984375,67.38037109375)"/>
<path d="M0 0 C0.33 0 0.66 0 1 0 C1 16.83 1 33.66 1 51 C2.65 50.34 4.3 49.68 6 49 C7.32676508 48.64141484 8.65835921 48.2981424 10 48 C7.22719294 51.08089673 4.93673644 52.68775452 1 54 C0 53 0 53 -0.12025452 50.86766052 C-0.11803391 49.92834183 -0.11581329 48.98902313 -0.11352539 48.02124023 C-0.11344986 46.96021591 -0.11337433 45.89919159 -0.11329651 44.80601501 C-0.10813522 43.651866 -0.10297394 42.49771698 -0.09765625 41.30859375 C-0.0962413 40.13361832 -0.09482635 38.95864288 -0.09336853 37.74806213 C-0.08774992 33.97784936 -0.07519426 30.20769496 -0.0625 26.4375 C-0.0574874 23.88867273 -0.05292408 21.33984453 -0.04882812 18.79101562 C-0.03777444 12.52732367 -0.02101821 6.26366601 0 0 Z " fill="#63ABCB" transform="translate(20,37)"/>
<path d="M0 0 C0.33 1.32 0.66 2.64 1 4 C0.34 4 -0.32 4 -1 4 C-1.33 5.32 -1.66 6.64 -2 8 C-1.34 8.33 -0.68 8.66 0 9 C-0.59167969 9.38671875 -1.18335937 9.7734375 -1.79296875 10.171875 C-5.28284399 12.47189066 -8.68459352 14.74499051 -11.9375 17.375 C-14 19 -14 19 -16 19 C-15.875 17.1875 -15.875 17.1875 -15 15 C-9.96428571 12 -9.96428571 12 -7 12 C-6.67 11.01 -6.34 10.02 -6 9 C-5.34 8.67 -4.68 8.34 -4 8 C-7.63 7.67 -11.26 7.34 -15 7 C-15 6.01 -15 5.02 -15 4 C-14.34 4.33 -13.68 4.66 -13 5 C-8.95766279 5.40112411 -8.95766279 5.40112411 -5 5 C-1.99666733 2.66663334 -1.99666733 2.66663334 0 0 Z " fill="#348B8E" transform="translate(81,58)"/>
<path d="M0 0 C0 0.66 0 1.32 0 2 C-3.66972408 2.85716183 -6.98738848 3.07963199 -10.75 3 C-15.93153415 2.94869768 -20.86672912 3.31556388 -26 4 C-25.67 5.65 -25.34 7.3 -25 9 C-27.49361571 7.79618552 -29.68143083 6.54571278 -32 5 C-32 4.34 -32 3.68 -32 3 C-25.4772967 1.37263183 -19.33375506 0.61495547 -12.625 0.375 C-11.29275391 0.31699219 -11.29275391 0.31699219 -9.93359375 0.2578125 C-6.61888811 0.11740137 -3.31799848 0 0 0 Z " fill="#52BCE2" transform="translate(158,9)"/>
<path d="M0 0 C2.31 0 4.62 0 7 0 C8.16903433 4.09162017 7.80830594 6.18246523 6 10 C5.67 10.99 5.34 11.98 5 13 C2.36 12.67 -0.28 12.34 -3 12 C-2.01 9.69 -1.02 7.38 0 5 C1.65 5.33 3.3 5.66 5 6 C5 4.35 5 2.7 5 1 C2.13275314 1.57344937 1.1385485 1.8614515 -1 4 C-0.67 2.68 -0.34 1.36 0 0 Z " fill="#E4EEF7" transform="translate(120,39)"/>
<path d="M0 0 C1.48663983 2.75545698 2.4150229 5.27010688 3.0703125 8.328125 C3.33134766 9.52695312 3.33134766 9.52695312 3.59765625 10.75 C3.77167969 11.575 3.94570313 12.4 4.125 13.25 C4.30675781 14.09046875 4.48851562 14.9309375 4.67578125 15.796875 C5.12199541 17.86355111 5.56164445 19.93164277 6 22 C4.35 22 2.7 22 1 22 C0.18565857 19.14839609 -0.11881242 16.63373869 -0.09765625 13.671875 C-0.09282227 12.47304688 -0.09282227 12.47304688 -0.08789062 11.25 C-0.07951172 10.425 -0.07113281 9.6 -0.0625 8.75 C-0.05798828 7.90953125 -0.05347656 7.0690625 -0.04882812 6.203125 C-0.03707961 4.13538599 -0.01914522 2.06768376 0 0 Z " fill="#429CDC" transform="translate(648,40)"/>
<path d="M0 0 C1.98 0 3.96 0 6 0 C6 0.66 6 1.32 6 2 C7.32 2 8.64 2 10 2 C10.33 2.99 10.66 3.98 11 5 C9.3125 6.625 9.3125 6.625 7 8 C3.49388018 7.14484882 1.3440159 5.71412367 -1 3 C-0.67 2.01 -0.34 1.02 0 0 Z " fill="#309AB0" transform="translate(54,73)"/>
<path d="M0 0 C1.29210136 0.03541649 1.29210136 0.03541649 2.61030579 0.07154846 C5.361468 0.14811905 8.11234405 0.23217185 10.86328125 0.31640625 C12.72850162 0.36963355 14.59373596 0.4223739 16.45898438 0.47460938 C21.03143121 0.60372529 25.60363546 0.73955202 30.17578125 0.87890625 C30.17578125 1.20890625 30.17578125 1.53890625 30.17578125 1.87890625 C29.15218506 1.9039624 28.12858887 1.92901855 27.07397461 1.95483398 C23.25143383 2.04949419 19.42905015 2.1495682 15.60668945 2.2512207 C13.95698744 2.29434911 12.3072471 2.33603826 10.6574707 2.3762207 C8.27673836 2.43446272 5.89619498 2.49799722 3.515625 2.5625 C2.78617172 2.57921249 2.05671844 2.59592499 1.30516052 2.61314392 C-3.14583017 2.73993098 -7.42723248 3.17004042 -11.82421875 3.87890625 C-11.82421875 2.88890625 -11.82421875 1.89890625 -11.82421875 0.87890625 C-7.85404518 -0.44448494 -4.12748318 -0.13322306 0 0 Z " fill="#8FBDBD" transform="translate(97.82421875,104.12109375)"/>
<path d="M0 0 C2.6275765 4.91242564 2.26891852 8.64234404 1 14 C0.67 14.99 0.34 15.98 0 17 C0.33 17.99 0.66 18.98 1 20 C0.34 20 -0.32 20 -1 20 C-0.34 21.98 0.32 23.96 1 26 C-0.32 26 -1.64 26 -3 26 C-2.50610812 17.21392344 -1.63177319 8.64998215 0 0 Z " fill="#3F34A1" transform="translate(670,75)"/>
<path d="M0 0 C-0.33 1.65 -0.66 3.3 -1 5 C1.31 5 3.62 5 6 5 C6 5.33 6 5.66 6 6 C4.06318839 6.08107583 2.1254066 6.13922475 0.1875 6.1875 C-0.89144531 6.22230469 -1.97039062 6.25710937 -3.08203125 6.29296875 C-6 6 -6 6 -7.90625 4.625 C-9 3 -9 3 -8.6875 0.8125 C-8.460625 0.214375 -8.23375 -0.38375 -8 -1 C-3.375 -2.25 -3.375 -2.25 0 0 Z " fill="#4CB4B6" transform="translate(106,78)"/>
<path d="M0 0 C2.25 -0.25 2.25 -0.25 5 0 C7.125 1.875 7.125 1.875 9 4 C9.99 4.66 10.98 5.32 12 6 C12 6.66 12 7.32 12 8 C9.36 8 6.72 8 4 8 C3.67 7.01 3.34 6.02 3 5 C2.34 5 1.68 5 1 5 C0.67 3.35 0.34 1.7 0 0 Z " fill="#D3DD9C" transform="translate(139,0)"/>
<path d="M0 0 C0.89847656 0.03963867 1.79695312 0.07927734 2.72265625 0.12011719 C3.69976563 0.16265625 4.676875 0.20519531 5.68359375 0.24902344 C6.70710937 0.30445312 7.730625 0.35988281 8.78515625 0.41699219 C9.80867187 0.45695312 10.8321875 0.49691406 11.88671875 0.53808594 C19.529305 0.91114094 19.529305 0.91114094 21.78515625 3.16699219 C22.35035628 5.82236591 22.52303823 8.45843932 22.78515625 11.16699219 C21.79515625 11.66199219 21.79515625 11.66199219 20.78515625 12.16699219 C18.46293752 8.39338675 18.78515625 7.15499807 18.78515625 2.16699219 C11.19515625 2.16699219 3.60515625 2.16699219 -4.21484375 2.16699219 C-2.21484375 0.16699219 -2.21484375 0.16699219 0 0 Z " fill="#4636A5" transform="translate(624.21484375,86.8330078125)"/>
<path d="M0 0 C4 0 4 0 7 1 C6.525625 2.051875 6.05125 3.10375 5.5625 4.1875 C4.30676259 7.10175851 3.47765619 9.84746914 3 13 C2.01 13 1.02 13 0 13 C0.66 11.02 1.32 9.04 2 7 C1.34 7 0.68 7 0 7 C0 6.34 0 5.68 0 5 C-0.66 5 -1.32 5 -2 5 C-1.125 1.125 -1.125 1.125 0 0 Z " fill="#22ACE4" transform="translate(142,13)"/>
<path d="M0 0 C0.33 0.99 0.66 1.98 1 3 C-3.455 5.97 -3.455 5.97 -8 9 C-8 8.34 -8 7.68 -8 7 C-8.99 7.33 -9.98 7.66 -11 8 C-11 6.02 -11 4.04 -11 2 C-8.43386274 1.14462091 -7.06517464 0.98603401 -4.375 1.5625 C-3.59125 1.706875 -2.8075 1.85125 -2 2 C-1.34 1.34 -0.68 0.68 0 0 Z " fill="#3493AA" transform="translate(44,71)"/>
<path d="M0 0 C0 0.66 0 1.32 0 2 C0.99 2 1.98 2 3 2 C2.67 2.66 2.34 3.32 2 4 C-2.11230844 4.67414892 -5.83019643 5 -10 5 C-10.99 5.66 -11.98 6.32 -13 7 C-13 6.01 -13 5.02 -13 4 C-12.34 4 -11.68 4 -11 4 C-10.67 3.01 -10.34 2.02 -10 1 C-6.78548731 -0.60725635 -3.56387464 -0.05748185 0 0 Z " fill="#F27B21" transform="translate(76,43)"/>
<path d="M0 0 C1.134375 0.020625 2.26875 0.04125 3.4375 0.0625 C3.4375 0.3925 3.4375 0.7225 3.4375 1.0625 C1.7875 1.0625 0.1375 1.0625 -1.5625 1.0625 C-1.5625 1.7225 -1.5625 2.3825 -1.5625 3.0625 C-0.9025 3.3925 -0.2425 3.7225 0.4375 4.0625 C1.0625 6.625 1.0625 6.625 1.4375 9.0625 C-0.2125 9.3925 -1.8625 9.7225 -3.5625 10.0625 C-5.1875 8.375 -5.1875 8.375 -6.5625 6.0625 C-4.89460332 0.08587023 -4.89460332 0.08587023 0 0 Z " fill="#0365A0" transform="translate(87.5625,37.9375)"/>
<path d="M0 0 C0.99 0.33 1.98 0.66 3 1 C3.33 1.99 3.66 2.98 4 4 C2.68 3.67 1.36 3.34 0 3 C0 4.98 0 6.96 0 9 C-0.66 9 -1.32 9 -2 9 C-2.33 9.99 -2.66 10.98 -3 12 C-4.98 11.01 -6.96 10.02 -9 9 C-8 7 -8 7 -5.625 6.1875 C-2.37834986 4.71877732 -1.56476973 3.12953947 0 0 Z " fill="#EDDB9A" transform="translate(111,0)"/>
<path d="M0 0 C0 2.97 0 5.94 0 9 C-1.65 9.33 -3.3 9.66 -5 10 C-6.4606285 7.35261084 -7 6.10551666 -7 3 C-2.77777778 0 -2.77777778 0 0 0 Z " fill="#4877D5" transform="translate(654,62)"/>
<path d="M0 0 C1.65 0 3.3 0 5 0 C5.33 1.32 5.66 2.64 6 4 C5.01 4.66 4.02 5.32 3 6 C2.26656572 9.06556598 2.26656572 9.06556598 2 12 C1.01 12 0.02 12 -1 12 C-0.67 8.04 -0.34 4.08 0 0 Z " fill="#4683D8" transform="translate(672,58)"/>
<path d="M0 0 C1.65 0 3.3 0 5 0 C4.608125 0.9075 4.21625 1.815 3.8125 2.75 C3.544375 3.8225 3.27625 4.895 3 6 C3.7115625 6.928125 3.7115625 6.928125 4.4375 7.875 C6.3932546 10.53482626 6.31600448 11.99455311 6.1875 15.25 C6.16042969 16.14203125 6.13335937 17.0340625 6.10546875 17.953125 C6.07066406 18.62859375 6.03585938 19.3040625 6 20 C5.34 20 4.68 20 4 20 C3.85304688 18.77023438 3.85304688 18.77023438 3.703125 17.515625 C3.47882813 15.89914063 3.47882813 15.89914063 3.25 14.25 C3.11078125 13.18265625 2.9715625 12.1153125 2.828125 11.015625 C1.8902252 7.60025402 0.68083082 6.24492337 -2 4 C-1.01 3.67 -0.02 3.34 1 3 C0.67 2.01 0.34 1.02 0 0 Z " fill="#1F6783" transform="translate(79,38)"/>
<path d="M0 0 C0.33 0 0.66 0 1 0 C1 3.63 1 7.26 1 11 C2.32 11 3.64 11 5 11 C5.33 11.99 5.66 12.98 6 14 C5.67 14.33 5.34 14.66 5 15 C2.69 15 0.38 15 -2 15 C-1.34 10.05 -0.68 5.1 0 0 Z " fill="#45A2E4" transform="translate(674,43)"/>
<path d="M0 0 C0.66 0 1.32 0 2 0 C2.33 1.32 2.66 2.64 3 4 C4.32 4.33 5.64 4.66 7 5 C6.62403791 7.78211944 6.32681541 9.5879284 4.5625 11.8125 C3 13 3 13 1 13 C0.67 8.71 0.34 4.42 0 0 Z " fill="#39B0EE" transform="translate(674,41)"/>
<path d="M0 0 C2.97 0.495 2.97 0.495 6 1 C6 1.66 6 2.32 6 3 C6.7425 3 7.485 3 8.25 3 C15 3 15 3 18 5 C14.2888064 6.8555968 9.95729235 5.80477046 6 5 C3.605301 3.88716929 2.04342293 2.7207772 0 1 C0 0.67 0 0.34 0 0 Z " fill="#0A5C54" transform="translate(68,89)"/>
<path d="M0 0 C-0.99 1.485 -0.99 1.485 -2 3 C-2.66 3 -3.32 3 -4 3 C-4.66 4.65 -5.32 6.3 -6 8 C-6.99 7.67 -7.98 7.34 -9 7 C-8.75 4.125 -8.75 4.125 -8 1 C-5.16896222 -1.24530582 -3.33143942 -1.18979979 0 0 Z " fill="#E16527" transform="translate(166,31)"/>
<path d="M0 0 C1 2 1 2 1 5 C1.33 5.66 1.66 6.32 2 7 C2.66 7 3.32 7 4 7 C3.34 8.32 2.68 9.64 2 11 C1.01 10.67 0.02 10.34 -1 10 C-1.99 10.33 -2.98 10.66 -4 11 C-3.39301257 6.87248551 -1.96189209 3.6678852 0 0 Z " fill="#49A5DD" transform="translate(628,42)"/>
<path d="M0 0 C5.94 0 11.88 0 18 0 C18 1.65 18 3.3 18 5 C17.34 4.34 16.68 3.68 16 3 C13.26565038 2.6936141 10.61720179 2.4886664 7.875 2.375 C7.12089844 2.33632813 6.36679687 2.29765625 5.58984375 2.2578125 C3.72696816 2.16348969 1.86351745 2.08065338 0 2 C0 1.34 0 0.68 0 0 Z " fill="#50C4E9" transform="translate(630,39)"/>
<path d="M0 0 C1.125 3.75 1.125 3.75 0 6 C0.99 5.67 1.98 5.34 3 5 C2.67 6.65 2.34 8.3 2 10 C0.02 10.33 -1.96 10.66 -4 11 C-3.39301257 6.87248551 -1.96189209 3.6678852 0 0 Z " fill="#4482D3" transform="translate(621,55)"/>
<path d="M0 0 C1.5625 1.6875 1.5625 1.6875 3 4 C2.625 6.5 2.625 6.5 2 9 C2.36856864 11.23167185 2.36856864 11.23167185 3 13 C0 13 0 13 -3 12 C-3 10.68 -3 9.36 -3 8 C-2.01 8 -1.02 8 0 8 C0 5.36 0 2.72 0 0 Z " fill="#0E80A4" transform="translate(85,50)"/>
<path d="M0 0 C0.99 0 1.98 0 3 0 C6.44419134 9.41002278 6.44419134 9.41002278 6 14 C5.34 14 4.68 14 4 14 C3.01 10.37 2.02 6.74 1 3 C0.01 3.495 0.01 3.495 -1 4 C-0.67 2.68 -0.34 1.36 0 0 Z " fill="#487EC7" transform="translate(635,57)"/>
<path d="M0 0 C1.15227823 0.76116551 2.2966386 1.53432693 3.4375 2.3125 C4.07558594 2.74175781 4.71367188 3.17101563 5.37109375 3.61328125 C7 5 7 5 8 8 C7.01 8.33 6.02 8.66 5 9 C2.7363436 7.59554165 0.9791315 5.8032087 -1 4 C-0.67 2.68 -0.34 1.36 0 0 Z " fill="#A6C6D9" transform="translate(112,48)"/>
<path d="M0 0 C0.33 1.32 0.66 2.64 1 4 C0.01 4.66 -0.98 5.32 -2 6 C-2 7.32 -2 8.64 -2 10 C-4.31 9.34 -6.62 8.68 -9 8 C-8.67 7.01 -8.34 6.02 -8 5 C-5.66666667 4.33333333 -3.33333333 3.66666667 -1 3 C-0.67 2.01 -0.34 1.02 0 0 Z " fill="#F0E8A9" transform="translate(155,24)"/>
<path d="M0 0 C5.875 2.75 5.875 2.75 7 5 C5.68872739 5.6690776 4.3759455 6.33519806 3.0625 7 C1.96615234 7.556875 1.96615234 7.556875 0.84765625 8.125 C-1 9 -1 9 -2 9 C-2 7.35 -2 5.7 -2 4 C-0.68 3.67 0.64 3.34 2 3 C1.34 2.67 0.68 2.34 0 2 C0 1.34 0 0.68 0 0 Z " fill="#D8954B" transform="translate(114,4)"/>
<path d="M0 0 C3.42744229 -0.3607834 5.88122044 -0.55938978 9 1 C9 2.65 9 4.3 9 6 C8.319375 5.46375 7.63875 4.9275 6.9375 4.375 C3.94027673 2.61190014 3.94027673 2.61190014 0.1875 3.8125 C-1.3903125 4.4003125 -1.3903125 4.4003125 -3 5 C-1.9375 2.5 -1.9375 2.5 0 0 Z " fill="#24799B" transform="translate(120,56)"/>
<path d="M0 0 C0.33 0.66 0.66 1.32 1 2 C1.66 2.33 2.32 2.66 3 3 C3.33 3.99 3.66 4.98 4 6 C2.6875 7.5 2.6875 7.5 1 9 C0.01 9 -0.98 9 -2 9 C-2.6875 7.3125 -2.6875 7.3125 -3 5 C-1.5625 2.25 -1.5625 2.25 0 0 Z " fill="#454FBE" transform="translate(613,71)"/>
<path d="M0 0 C0.33 0 0.66 0 1 0 C1 4.62 1 9.24 1 14 C2.65 13.34 4.3 12.68 6 12 C7.32676508 11.64141484 8.65835921 11.2981424 10 11 C7.22719294 14.08089673 4.93673644 15.68775452 1 17 C0 16 0 16 -0.09765625 12.40234375 C-0.0909822 10.91403133 -0.07902183 9.42573568 -0.0625 7.9375 C-0.05798828 7.17888672 -0.05347656 6.42027344 -0.04882812 5.63867188 C-0.0370068 3.75908129 -0.01907078 1.87953101 0 0 Z " fill="#78BCCB" transform="translate(20,74)"/>
<path d="M0 0 C2 3 2 3 1.7578125 5.69921875 C1.54898438 6.68535156 1.34015625 7.67148437 1.125 8.6875 C0.81949219 10.17830078 0.81949219 10.17830078 0.5078125 11.69921875 C0.34023438 12.45847656 0.17265625 13.21773437 0 14 C-0.66 14 -1.32 14 -2 14 C-2.33 14.99 -2.66 15.98 -3 17 C-3 14.36 -3 11.72 -3 9 C-2.34 9 -1.68 9 -1 9 C-0.67 6.03 -0.34 3.06 0 0 Z " fill="#3E9EDB" transform="translate(689,44)"/>
<path d="M0 0 C0.66 0 1.32 0 2 0 C1.29880002 3.15539989 0.21138129 6.00717565 -1 9 C-1.67795528 10.99620166 -2.34733531 12.99538701 -3 15 C-3.66 14.67 -4.32 14.34 -5 14 C-3.8545847 8.8896856 -2.54521255 4.62765919 0 0 Z " fill="#4841AB" transform="translate(609,78)"/>
<path d="M0 0 C5.75 1.875 5.75 1.875 8 3 C8.33 3.99 8.66 4.98 9 6 C9.66 6.33 10.32 6.66 11 7 C11 7.99 11 8.98 11 10 C7.81326038 8.59698853 5.67778594 6.92234929 3.25 4.4375 C2.63640625 3.81746094 2.0228125 3.19742188 1.390625 2.55859375 C0 1 0 1 0 0 Z " fill="#2D9DA3" transform="translate(86,70)"/>
<path d="M0 0 C0.33 0.66 0.66 1.32 1 2 C1.66 2.33 2.32 2.66 3 3 C2.01 3.66 1.02 4.32 0 5 C-0.80092254 7.64691668 -0.80092254 7.64691668 -1.1875 10.625 C-1.34605469 11.62789062 -1.50460938 12.63078125 -1.66796875 13.6640625 C-1.77753906 14.43492188 -1.88710938 15.20578125 -2 16 C-2.66 15.67 -3.32 15.34 -4 15 C-4.45356243 8.53673535 -3.59378942 5.39068413 0 0 Z " fill="#286577" transform="translate(63,41)"/>
<path d="M0 0 C1.95803507 -0.05389087 3.91648909 -0.09274217 5.875 -0.125 C7.51082031 -0.15980469 7.51082031 -0.15980469 9.1796875 -0.1953125 C12 0 12 0 14 2 C9.545 4.97 9.545 4.97 5 8 C6 6 7 4 8 2 C5.36 1.67 2.72 1.34 0 1 C0 0.67 0 0.34 0 0 Z " fill="#36B3D5" transform="translate(141,11)"/>
<path d="M0 0 C6.93 0.495 6.93 0.495 14 1 C11.65828261 3.34171739 10.76939546 3.391923 7.5625 3.75 C6.78003906 3.84796875 5.99757813 3.9459375 5.19140625 4.046875 C3 4 3 4 0 2 C0 1.34 0 0.68 0 0 Z " fill="#86CFE0" transform="translate(121,9)"/>
<path d="M0 0 C0.66 0 1.32 0 2 0 C2 0.99 2 1.98 2 3 C-0.27837542 5.27837542 -1.50812237 5.96646289 -4.75 6.1875 C-5.86375 6.0946875 -5.86375 6.0946875 -7 6 C-7.33 4.68 -7.66 3.36 -8 2 C-7.05125 2.04125 -6.1025 2.0825 -5.125 2.125 C-1.89755144 2.34973818 -1.89755144 2.34973818 0 0 Z " fill="#4BA9BA" transform="translate(34,78)"/>
<path d="M0 0 C0.87011719 0.10828125 0.87011719 0.10828125 1.7578125 0.21875 C6.20087574 0.7466387 10.51631578 1.11496626 15 1 C14 2.5 14 2.5 12 4 C4.97560976 4.7804878 4.97560976 4.7804878 1.5 2 C1.005 1.34 0.51 0.68 0 0 Z " fill="#CBC05F" transform="translate(64,60)"/>
<path d="M0 0 C0 0.66 0 1.32 0 2 C-4.82181981 3.32575494 -9.38832067 2.90062439 -14.3125 2.5625 C-15.14845703 2.51029297 -15.98441406 2.45808594 -16.84570312 2.40429688 C-18.89750789 2.27532629 -20.94881306 2.13844979 -23 2 C-23 1.67 -23 1.34 -23 1 C-19.72922836 0.83210783 -16.45837336 0.66589762 -13.1875 0.5 C-12.25873047 0.45230469 -11.32996094 0.40460937 -10.37304688 0.35546875 C-9.0340332 0.28779297 -9.0340332 0.28779297 -7.66796875 0.21875 C-6.84578857 0.17685547 -6.0236084 0.13496094 -5.17651367 0.09179688 C-3.45227071 0.01907502 -1.72577585 0 0 0 Z " fill="#5FBED1" transform="translate(158,9)"/>
<path d="M0 0 C0.99 0.33 1.98 0.66 3 1 C2.69217504 2.64671412 2.37860766 4.29235576 2.0625 5.9375 C1.88847656 6.85402344 1.71445312 7.77054687 1.53515625 8.71484375 C1 11 1 11 0 12 C-2.33297433 12.04092937 -4.66705225 12.04241723 -7 12 C-6.67 11.34 -6.34 10.68 -6 10 C-3.4375 9.375 -3.4375 9.375 -1 9 C-0.08941469 5.92677456 0.08886184 3.19902639 0 0 Z " fill="#EEF6FE" transform="translate(533,90)"/>
<path d="M0 0 C0.66 0 1.32 0 2 0 C2.33 4.29 2.66 8.58 3 13 C2.01 12.67 1.02 12.34 0 12 C0 8.04 0 4.08 0 0 Z " fill="#A1D0CB" transform="translate(129,93)"/>
<path d="M0 0 C1.65 0 3.3 0 5 0 C5.33 0.66 5.66 1.32 6 2 C6.99 2.66 7.98 3.32 9 4 C5.37 4 1.74 4 -2 4 C-1.34 2.68 -0.68 1.36 0 0 Z " fill="#205A84" transform="translate(68,38)"/>
<path d="M0 0 C2.64 0.33 5.28 0.66 8 1 C4.67692308 4.93846154 4.67692308 4.93846154 1.25 5.25 C0.5075 5.1675 -0.235 5.085 -1 5 C-0.67 3.35 -0.34 1.7 0 0 Z " fill="#339AB3" transform="translate(105,67)"/>
<path d="M0 0 C0.99 0.33 1.98 0.66 3 1 C2.360625 1.66 1.72125 2.32 1.0625 3 C-1.58912502 6.85690912 -1.68667121 9.37840033 -2 14 C-2.33 14 -2.66 14 -3 14 C-4.61050328 5.96498906 -4.61050328 5.96498906 -2.0625 1.9375 C-1.381875 1.298125 -0.70125 0.65875 0 0 Z " fill="#1A76A2" transform="translate(103,53)"/>
<path d="M0 0 C2.97 0 5.94 0 9 0 C8.67 1.32 8.34 2.64 8 4 C7.01 4.33 6.02 4.66 5 5 C4.34 4.01 3.68 3.02 3 2 C1.02 2.99 1.02 2.99 -1 4 C-0.67 2.68 -0.34 1.36 0 0 Z " fill="#3DC4F9" transform="translate(677,41)"/>
<path d="M0 0 C0.99 0.33 1.98 0.66 3 1 C3 2.98 3 4.96 3 7 C2.01 7 1.02 7 0 7 C-0.66 5.02 -1.32 3.04 -2 1 C-1.34 0.67 -0.68 0.34 0 0 Z " fill="#096FA1" transform="translate(105,45)"/>
<path d="M0 0 C0.33 0 0.66 0 1 0 C1 3.63 1 7.26 1 11 C-1.97 11 -4.94 11 -8 11 C-8 10.67 -8 10.34 -8 10 C-4.535 9.505 -4.535 9.505 -1 9 C-0.67 6.03 -0.34 3.06 0 0 Z " fill="#167052" transform="translate(128,94)"/>
<path d="M0 0 C0.125 6.625 0.125 6.625 -1 10 C-1.66 10 -2.32 10 -3 10 C-3 7.03 -3 4.06 -3 1 C-1 0 -1 0 0 0 Z " fill="#35B8EF" transform="translate(689,43)"/>
<path d="M0 0 C1.13643966 3.40931897 0.86747764 4.00335456 -0.4375 7.1875 C-0.72496094 7.90292969 -1.01242187 8.61835937 -1.30859375 9.35546875 C-1.53675781 9.89816406 -1.76492188 10.44085938 -2 11 C-2.66 10.67 -3.32 10.34 -4 10 C-4 8.02 -4 6.04 -4 4 C-3.01 4 -2.02 4 -1 4 C-0.67 2.68 -0.34 1.36 0 0 Z " fill="#495BC6" transform="translate(686,70)"/>
<path d="M0 0 C1.485 0.99 1.485 0.99 3 2 C3 2.66 3 3.32 3 4 C3.99 4.33 4.98 4.66 6 5 C6 5.33 6 5.66 6 6 C4.02 6.33 2.04 6.66 0 7 C-0.38133299 5.0085944 -0.71325582 3.00720923 -1 1 C-0.67 0.67 -0.34 0.34 0 0 Z " fill="#FED06A" transform="translate(111,2)"/>
<path d="M0 0 C0.5625 1.9375 0.5625 1.9375 1 4 C0 5 0 5 -3.16015625 5.09765625 C-5.09181641 5.08025391 -5.09181641 5.08025391 -7.0625 5.0625 C-8.35285156 5.05347656 -9.64320313 5.04445313 -10.97265625 5.03515625 C-11.97167969 5.02355469 -12.97070312 5.01195313 -14 5 C-14 4.67 -14 4.34 -14 4 C-10.04 4 -6.08 4 -2 4 C-1.34 2.68 -0.68 1.36 0 0 Z " fill="#332F8A" transform="translate(682,97)"/>
<path d="M0 0 C3.82097239 0.53069061 6.06171403 1.49701566 9 4 C7.8553125 3.9690625 7.8553125 3.9690625 6.6875 3.9375 C3.89814214 3.87057159 3.89814214 3.87057159 1 5 C1 4.34 1 3.68 1 3 C0.34 2.67 -0.32 2.34 -1 2 C-0.67 1.34 -0.34 0.68 0 0 Z " fill="#0F6753" transform="translate(98,100)"/>
<path d="M0 0 C1 2 1 2 1 6 C1.66 6.66 2.32 7.32 3 8 C1.68 8 0.36 8 -1 8 C-1.99 6.02 -2.98 4.04 -4 2 C-2.68 1.34 -1.36 0.68 0 0 Z " fill="#D9864E" transform="translate(157,32)"/>
<path d="M0 0 C2.30812572 3.89496215 2.44834967 6.92638278 1.5 11.3125 C1.335 11.869375 1.17 12.42625 1 13 C0.34 13 -0.32 13 -1 13 C-1.07654536 8.48382401 -1.10228696 4.40914783 0 0 Z " fill="#424BB2" transform="translate(670,75)"/>
<path d="M0 0 C2.72426311 2.35277269 3.8141763 4.62496331 5 8 C2.5625 7.25 2.5625 7.25 0 6 C-0.875 4 -0.875 4 -1 2 C-0.67 1.34 -0.34 0.68 0 0 Z " fill="#DEC884" transform="translate(157,19)"/>
<path d="M0 0 C0.804375 0.4640625 0.804375 0.4640625 1.625 0.9375 C4.3984957 2.17827439 7.00042837 2.5909675 10 3 C10 3.33 10 3.66 10 4 C6.04 4 2.08 4 -2 4 C-1.34 2.68 -0.68 1.36 0 0 Z " fill="#CCDFD8" transform="translate(131,4)"/>
<path d="M0 0 C0.99 0 1.98 0 3 0 C3 0.66 3 1.32 3 2 C6.3 2.33 9.6 2.66 13 3 C13 3.33 13 3.66 13 4 C7.5610835 4.21755666 3.12919186 4.10428384 -2 2 C-1.34 1.34 -0.68 0.68 0 0 Z " fill="#EEF7FD" transform="translate(191,99)"/>
<path d="M0 0 C0.33 0.99 0.66 1.98 1 3 C0 4 0 4 -2.06640625 4.09765625 C-2.89011719 4.08605469 -3.71382813 4.07445313 -4.5625 4.0625 C-5.38878906 4.05347656 -6.21507812 4.04445313 -7.06640625 4.03515625 C-7.70449219 4.02355469 -8.34257812 4.01195313 -9 4 C-9 3.01 -9 2.02 -9 1 C-8.071875 1.20625 -7.14375 1.4125 -6.1875 1.625 C-2.84826598 2.36692966 -2.84826598 2.36692966 0 0 Z " fill="#ECFAFE" transform="translate(461,98)"/>
<path d="M0 0 C0.99 0 1.98 0 3 0 C3 2.97 3 5.94 3 9 C2.01 9 1.02 9 0 9 C0 6.03 0 3.06 0 0 Z " fill="#4E35B3" transform="translate(656,90)"/>
<path d="M0 0 C4.1666604 0.47348414 6.92884715 1.04696841 10 4 C10 4.66 10 5.32 10 6 C6.00499382 4.6302836 3.19990508 2.74277578 0 0 Z " fill="#08554D" transform="translate(86,95)"/>
<path d="M0 0 C0.33 0 0.66 0 1 0 C1 2.31 1 4.62 1 7 C-0.8125 8.0625 -0.8125 8.0625 -3 9 C-3.99 8.67 -4.98 8.34 -6 8 C-5.360625 7.731875 -4.72125 7.46375 -4.0625 7.1875 C-1.66868314 6.11332248 -1.66868314 6.11332248 -1 3 C-0.67 2.01 -0.34 1.02 0 0 Z " fill="#59B0B8" transform="translate(128,72)"/>
<path d="M0 0 C0.33 0.99 0.66 1.98 1 3 C1.66 3.66 2.32 4.32 3 5 C1.02 5.66 -0.96 6.32 -3 7 C-3 5.02 -3 3.04 -3 1 C-2.01 0.67 -1.02 0.34 0 0 Z " fill="#319DB4" transform="translate(36,72)"/>
<path d="M0 0 C1.49739583 1.26953125 2.99479167 2.5390625 4.4921875 3.80859375 C6.00594079 5.0878152 6.00594079 5.0878152 8 6 C7.67 6.99 7.34 7.98 7 9 C5.82460004 8.07347299 4.65989423 7.13336613 3.5 6.1875 C2.52546875 5.40439453 2.52546875 5.40439453 1.53125 4.60546875 C0 3 0 3 0 0 Z " fill="#98CADD" transform="translate(134,24)"/>
<path d="M0 0 C-0.99 0.33 -1.98 0.66 -3 1 C-3.33 1.99 -3.66 2.98 -4 4 C-5.65 4 -7.3 4 -9 4 C-8.67 3.01 -8.34 2.02 -8 1 C-5.29120665 -0.35439668 -2.99066732 -0.06501451 0 0 Z " fill="#5556B2" transform="translate(636,76)"/>
<path d="M0 0 C0.99 0.33 1.98 0.66 3 1 C3.6875 3.0625 3.6875 3.0625 4 5 C2.68 4.67 1.36 4.34 0 4 C-0.33 4.99 -0.66 5.98 -1 7 C-2 4 -2 4 -1.0625 1.8125 C-0.5365625 0.9153125 -0.5365625 0.9153125 0 0 Z " fill="#C3D7E4" transform="translate(134,53)"/>
<path d="M0 0 C0.99 0.33 1.98 0.66 3 1 C2.67 2.32 2.34 3.64 2 5 C0.68 5 -0.64 5 -2 5 C-1.34 3.35 -0.68 1.7 0 0 Z " fill="#58B9BD" transform="translate(23,83)"/>
<path d="M0 0 C-5.75 5 -5.75 5 -8 5 C-7.8125 3.125 -7.8125 3.125 -7 1 C-2.66666667 -1.33333333 -2.66666667 -1.33333333 0 0 Z " fill="#2793A0" transform="translate(73,72)"/>
<path d="M0 0 C0.33 0.66 0.66 1.32 1 2 C-0.4375 4.625 -0.4375 4.625 -2 7 C-3.32 6.67 -4.64 6.34 -6 6 C-4 4 -2 2 0 0 Z " fill="#27849A" transform="translate(116,61)"/>
<path d="M0 0 C1.98 0 3.96 0 6 0 C6.33 0.66 6.66 1.32 7 2 C6.01 2.33 5.02 2.66 4 3 C3.34 3.66 2.68 4.32 2 5 C1.34 3.35 0.68 1.7 0 0 Z " fill="#1E8DB0" transform="translate(71,65)"/>
<path d="M0 0 C0.66 0 1.32 0 2 0 C2.33 1.98 2.66 3.96 3 6 C2.01 6.66 1.02 7.32 0 8 C0 5.36 0 2.72 0 0 Z " fill="#A7CDDD" transform="translate(130,57)"/>
<path d="M0 0 C0.33 0.66 0.66 1.32 1 2 C1.66 2 2.32 2 3 2 C2.34 3.32 1.68 4.64 1 6 C0.34 6 -0.32 6 -1 6 C-1.33 5.01 -1.66 4.02 -2 3 C-1.34 2.01 -0.68 1.02 0 0 Z " fill="#3AA7EE" transform="translate(629,47)"/>
<path d="M0 0 C-2.5654594 2.5654594 -4.47686668 2.54046087 -8 3 C-7.67 2.01 -7.34 1.02 -7 0 C-3.86650268 -1.04449911 -3.01031744 -0.93423645 0 0 Z " fill="#3EB7F4" transform="translate(635,45)"/>
<path d="M0 0 C2.64 0 5.28 0 8 0 C8 1.65 8 3.3 8 5 C7.4121875 4.2575 7.4121875 4.2575 6.8125 3.5 C4.44908285 1.54406857 2.98564997 1.75792027 0 2 C0 1.34 0 0.68 0 0 Z " fill="#0C639C" transform="translate(98,37)"/>
<path d="M0 0 C1.98 0.66 3.96 1.32 6 2 C6 2.99 6 3.98 6 5 C4.68 5.33 3.36 5.66 2 6 C2.66 4.68 3.32 3.36 4 2 C2.68 2 1.36 2 0 2 C0 1.34 0 0.68 0 0 Z " fill="#D4925C" transform="translate(162,27)"/>
<path d="M0 0 C-2.5654594 2.5654594 -4.47686668 2.54046087 -8 3 C-7.67 2.01 -7.34 1.02 -7 0 C-3.86650268 -1.04449911 -3.01031744 -0.93423645 0 0 Z " fill="#ED7221" transform="translate(166,31)"/>
<path d="M0 0 C1.65 0.33 3.3 0.66 5 1 C5.33 2.32 5.66 3.64 6 5 C3.69 4.34 1.38 3.68 -1 3 C-0.67 2.01 -0.34 1.02 0 0 Z " fill="#DCD5A1" transform="translate(147,29)"/>
<path d="M0 0 C1.32 0 2.64 0 4 0 C4 1.98 4 3.96 4 6 C3.01 5.67 2.02 5.34 1 5 C0.67 3.35 0.34 1.7 0 0 Z " fill="#EBE8A9" transform="translate(139,0)"/>
<path d="M0 0 C0.66 0 1.32 0 2 0 C2 0.66 2 1.32 2 2 C1.34 2 0.68 2 0 2 C0 1.34 0 0.68 0 0 Z " fill="#D4E9FF" transform="translate(121,41)"/>
<path d="" fill="#FFFFFF" transform="translate(0,0)"/>
<path d="" fill="#AAAAFF" transform="translate(0,0)"/>
<path d="" fill="#FFFFFF" transform="translate(0,0)"/>
</svg>
